ISO-10303-21;
HEADER;
/* Generated by software containing ST-Developer
 * from STEP Tools, Inc. (www.steptools.com) 
 */

FILE_DESCRIPTION(
/* description */ (''),
/* implementation_level */ '2;1');

FILE_NAME(
/* name */ 'Board Case Top.step',
/* time_stamp */ '2026-09-22T21:55:22-04:00',
/* author */ (''),
/* organization */ (''),
/* preprocessor_version */ 'ST-DEVELOPER v20.2',
/* originating_system */ 'Autodesk Translation Framework v15.15.0.0',
/* authorisation */ '');

FILE_SCHEMA (('AUTOMOTIVE_DESIGN { 1 0 10303 214 3 1 1 }'));
ENDSEC;

DATA;
#10=MECHANICAL_DESIGN_GEOMETRIC_PRESENTATION_REPRESENTATION('',(#13),#978);
#11=SHAPE_REPRESENTATION_RELATIONSHIP('SRR','None',#985,#12);
#12=ADVANCED_BREP_SHAPE_REPRESENTATION('',(#14),#977);
#13=STYLED_ITEM('',(#994),#14);
#14=MANIFOLD_SOLID_BREP('Body1',#590);
#15=CYLINDRICAL_SURFACE('',#623,3.);
#16=CYLINDRICAL_SURFACE('',#628,3.);
#17=CYLINDRICAL_SURFACE('',#633,3.);
#18=CYLINDRICAL_SURFACE('',#638,3.);
#19=CYLINDRICAL_SURFACE('',#646,2.);
#20=CYLINDRICAL_SURFACE('',#647,2.);
#21=CYLINDRICAL_SURFACE('',#648,2.);
#22=CYLINDRICAL_SURFACE('',#649,2.);
#23=CIRCLE('',#610,2.);
#24=CIRCLE('',#617,2.);
#25=CIRCLE('',#621,2.);
#26=CIRCLE('',#622,2.);
#27=CIRCLE('',#624,3.);
#28=CIRCLE('',#625,3.);
#29=CIRCLE('',#627,2.);
#30=CIRCLE('',#629,3.);
#31=CIRCLE('',#630,3.);
#32=CIRCLE('',#632,2.);
#33=CIRCLE('',#634,3.);
#34=CIRCLE('',#635,3.);
#35=CIRCLE('',#637,2.);
#36=CIRCLE('',#639,3.);
#37=CIRCLE('',#640,3.);
#38=CIRCLE('',#642,2.);
#39=FACE_BOUND('',#91,.T.);
#40=FACE_BOUND('',#92,.T.);
#41=FACE_BOUND('',#93,.T.);
#42=FACE_BOUND('',#97,.T.);
#43=FACE_BOUND('',#104,.T.);
#44=FACE_BOUND('',#108,.T.);
#45=FACE_BOUND('',#109,.T.);
#46=FACE_BOUND('',#112,.T.);
#47=FACE_BOUND('',#115,.T.);
#48=FACE_BOUND('',#118,.T.);
#49=FACE_BOUND('',#121,.T.);
#50=FACE_BOUND('',#133,.T.);
#51=FACE_BOUND('',#134,.T.);
#52=FACE_BOUND('',#135,.T.);
#53=FACE_BOUND('',#136,.T.);
#54=FACE_OUTER_BOUND('',#88,.T.);
#55=FACE_OUTER_BOUND('',#89,.T.);
#56=FACE_OUTER_BOUND('',#90,.T.);
#57=FACE_OUTER_BOUND('',#94,.T.);
#58=FACE_OUTER_BOUND('',#95,.T.);
#59=FACE_OUTER_BOUND('',#96,.T.);
#60=FACE_OUTER_BOUND('',#98,.T.);
#61=FACE_OUTER_BOUND('',#99,.T.);
#62=FACE_OUTER_BOUND('',#100,.T.);
#63=FACE_OUTER_BOUND('',#101,.T.);
#64=FACE_OUTER_BOUND('',#102,.T.);
#65=FACE_OUTER_BOUND('',#103,.T.);
#66=FACE_OUTER_BOUND('',#105,.T.);
#67=FACE_OUTER_BOUND('',#106,.T.);
#68=FACE_OUTER_BOUND('',#107,.T.);
#69=FACE_OUTER_BOUND('',#110,.T.);
#70=FACE_OUTER_BOUND('',#111,.T.);
#71=FACE_OUTER_BOUND('',#113,.T.);
#72=FACE_OUTER_BOUND('',#114,.T.);
#73=FACE_OUTER_BOUND('',#116,.T.);
#74=FACE_OUTER_BOUND('',#117,.T.);
#75=FACE_OUTER_BOUND('',#119,.T.);
#76=FACE_OUTER_BOUND('',#120,.T.);
#77=FACE_OUTER_BOUND('',#122,.T.);
#78=FACE_OUTER_BOUND('',#123,.T.);
#79=FACE_OUTER_BOUND('',#124,.T.);
#80=FACE_OUTER_BOUND('',#125,.T.);
#81=FACE_OUTER_BOUND('',#126,.T.);
#82=FACE_OUTER_BOUND('',#127,.T.);
#83=FACE_OUTER_BOUND('',#128,.T.);
#84=FACE_OUTER_BOUND('',#129,.T.);
#85=FACE_OUTER_BOUND('',#130,.T.);
#86=FACE_OUTER_BOUND('',#131,.T.);
#87=FACE_OUTER_BOUND('',#132,.T.);
#88=EDGE_LOOP('',(#380,#381,#382,#383));
#89=EDGE_LOOP('',(#384,#385,#386,#387));
#90=EDGE_LOOP('',(#388,#389,#390,#391));
#91=EDGE_LOOP('',(#392,#393,#394,#395));
#92=EDGE_LOOP('',(#396,#397,#398,#399));
#93=EDGE_LOOP('',(#400,#401,#402,#403,#404));
#94=EDGE_LOOP('',(#405,#406,#407,#408));
#95=EDGE_LOOP('',(#409,#410,#411,#412));
#96=EDGE_LOOP('',(#413,#414,#415,#416));
#97=EDGE_LOOP('',(#417));
#98=EDGE_LOOP('',(#418,#419,#420,#421));
#99=EDGE_LOOP('',(#422,#423,#424,#425));
#100=EDGE_LOOP('',(#426,#427,#428,#429));
#101=EDGE_LOOP('',(#430,#431,#432,#433));
#102=EDGE_LOOP('',(#434,#435,#436,#437));
#103=EDGE_LOOP('',(#438,#439,#440,#441));
#104=EDGE_LOOP('',(#442));
#105=EDGE_LOOP('',(#443,#444,#445,#446));
#106=EDGE_LOOP('',(#447,#448,#449,#450));
#107=EDGE_LOOP('',(#451,#452,#453,#454,#455));
#108=EDGE_LOOP('',(#456));
#109=EDGE_LOOP('',(#457));
#110=EDGE_LOOP('',(#458,#459,#460,#461));
#111=EDGE_LOOP('',(#462));
#112=EDGE_LOOP('',(#463));
#113=EDGE_LOOP('',(#464,#465,#466,#467));
#114=EDGE_LOOP('',(#468));
#115=EDGE_LOOP('',(#469));
#116=EDGE_LOOP('',(#470,#471,#472,#473));
#117=EDGE_LOOP('',(#474));
#118=EDGE_LOOP('',(#475));
#119=EDGE_LOOP('',(#476,#477,#478,#479));
#120=EDGE_LOOP('',(#480));
#121=EDGE_LOOP('',(#481));
#122=EDGE_LOOP('',(#482,#483,#484,#485));
#123=EDGE_LOOP('',(#486,#487,#488,#489));
#124=EDGE_LOOP('',(#490,#491,#492,#493));
#125=EDGE_LOOP('',(#494,#495,#496,#497));
#126=EDGE_LOOP('',(#498,#499,#500,#501));
#127=EDGE_LOOP('',(#502,#503,#504,#505));
#128=EDGE_LOOP('',(#506,#507,#508,#509));
#129=EDGE_LOOP('',(#510,#511,#512,#513));
#130=EDGE_LOOP('',(#514,#515,#516,#517));
#131=EDGE_LOOP('',(#518,#519,#520,#521));
#132=EDGE_LOOP('',(#522,#523,#524,#525));
#133=EDGE_LOOP('',(#526));
#134=EDGE_LOOP('',(#527));
#135=EDGE_LOOP('',(#528));
#136=EDGE_LOOP('',(#529));
#137=LINE('',#819,#196);
#138=LINE('',#821,#197);
#139=LINE('',#823,#198);
#140=LINE('',#824,#199);
#141=LINE('',#828,#200);
#142=LINE('',#830,#201);
#143=LINE('',#832,#202);
#144=LINE('',#833,#203);
#145=LINE('',#837,#204);
#146=LINE('',#839,#205);
#147=LINE('',#841,#206);
#148=LINE('',#842,#207);
#149=LINE('',#844,#208);
#150=LINE('',#846,#209);
#151=LINE('',#847,#210);
#152=LINE('',#849,#211);
#153=LINE('',#851,#212);
#154=LINE('',#852,#213);
#155=LINE('',#855,#214);
#156=LINE('',#857,#215);
#157=LINE('',#859,#216);
#158=LINE('',#861,#217);
#159=LINE('',#862,#218);
#160=LINE('',#865,#219);
#161=LINE('',#866,#220);
#162=LINE('',#869,#221);
#163=LINE('',#870,#222);
#164=LINE('',#873,#223);
#165=LINE('',#874,#224);
#166=LINE('',#879,#225);
#167=LINE('',#880,#226);
#168=LINE('',#884,#227);
#169=LINE('',#885,#228);
#170=LINE('',#886,#229);
#171=LINE('',#888,#230);
#172=LINE('',#892,#231);
#173=LINE('',#893,#232);
#174=LINE('',#894,#233);
#175=LINE('',#897,#234);
#176=LINE('',#898,#235);
#177=LINE('',#900,#236);
#178=LINE('',#905,#237);
#179=LINE('',#907,#238);
#180=LINE('',#916,#239);
#181=LINE('',#925,#240);
#182=LINE('',#934,#241);
#183=LINE('',#943,#242);
#184=LINE('',#950,#243);
#185=LINE('',#952,#244);
#186=LINE('',#953,#245);
#187=LINE('',#957,#246);
#188=LINE('',#959,#247);
#189=LINE('',#961,#248);
#190=LINE('',#963,#249);
#191=LINE('',#966,#250);
#192=LINE('',#967,#251);
#193=LINE('',#970,#252);
#194=LINE('',#971,#253);
#195=LINE('',#973,#254);
#196=VECTOR('',#658,10.);
#197=VECTOR('',#659,10.);
#198=VECTOR('',#660,10.);
#199=VECTOR('',#661,10.);
#200=VECTOR('',#664,10.);
#201=VECTOR('',#665,10.);
#202=VECTOR('',#666,10.);
#203=VECTOR('',#667,10.);
#204=VECTOR('',#670,10.);
#205=VECTOR('',#671,10.);
#206=VECTOR('',#672,10.);
#207=VECTOR('',#673,10.);
#208=VECTOR('',#674,10.);
#209=VECTOR('',#675,10.);
#210=VECTOR('',#676,10.);
#211=VECTOR('',#677,10.);
#212=VECTOR('',#678,10.);
#213=VECTOR('',#679,10.);
#214=VECTOR('',#680,10.);
#215=VECTOR('',#681,10.);
#216=VECTOR('',#682,10.);
#217=VECTOR('',#683,10.);
#218=VECTOR('',#684,10.);
#219=VECTOR('',#687,10.);
#220=VECTOR('',#688,10.);
#221=VECTOR('',#691,10.);
#222=VECTOR('',#692,10.);
#223=VECTOR('',#695,10.);
#224=VECTOR('',#696,10.);
#225=VECTOR('',#701,10.);
#226=VECTOR('',#702,10.);
#227=VECTOR('',#705,10.);
#228=VECTOR('',#706,10.);
#229=VECTOR('',#707,10.);
#230=VECTOR('',#710,10.);
#231=VECTOR('',#713,10.);
#232=VECTOR('',#714,10.);
#233=VECTOR('',#715,10.);
#234=VECTOR('',#718,10.);
#235=VECTOR('',#719,10.);
#236=VECTOR('',#722,10.);
#237=VECTOR('',#729,10.);
#238=VECTOR('',#732,10.);
#239=VECTOR('',#741,3.);
#240=VECTOR('',#752,3.);
#241=VECTOR('',#763,3.);
#242=VECTOR('',#774,3.);
#243=VECTOR('',#783,10.);
#244=VECTOR('',#784,10.);
#245=VECTOR('',#785,10.);
#246=VECTOR('',#792,2.);
#247=VECTOR('',#795,2.);
#248=VECTOR('',#798,2.);
#249=VECTOR('',#801,2.);
#250=VECTOR('',#804,10.);
#251=VECTOR('',#805,10.);
#252=VECTOR('',#808,10.);
#253=VECTOR('',#809,10.);
#254=VECTOR('',#812,10.);
#255=VERTEX_POINT('',#817);
#256=VERTEX_POINT('',#818);
#257=VERTEX_POINT('',#820);
#258=VERTEX_POINT('',#822);
#259=VERTEX_POINT('',#826);
#260=VERTEX_POINT('',#827);
#261=VERTEX_POINT('',#829);
#262=VERTEX_POINT('',#831);
#263=VERTEX_POINT('',#835);
#264=VERTEX_POINT('',#836);
#265=VERTEX_POINT('',#838);
#266=VERTEX_POINT('',#840);
#267=VERTEX_POINT('',#843);
#268=VERTEX_POINT('',#845);
#269=VERTEX_POINT('',#848);
#270=VERTEX_POINT('',#850);
#271=VERTEX_POINT('',#853);
#272=VERTEX_POINT('',#854);
#273=VERTEX_POINT('',#856);
#274=VERTEX_POINT('',#858);
#275=VERTEX_POINT('',#860);
#276=VERTEX_POINT('',#864);
#277=VERTEX_POINT('',#868);
#278=VERTEX_POINT('',#872);
#279=VERTEX_POINT('',#875);
#280=VERTEX_POINT('',#878);
#281=VERTEX_POINT('',#882);
#282=VERTEX_POINT('',#883);
#283=VERTEX_POINT('',#890);
#284=VERTEX_POINT('',#891);
#285=VERTEX_POINT('',#896);
#286=VERTEX_POINT('',#901);
#287=VERTEX_POINT('',#908);
#288=VERTEX_POINT('',#910);
#289=VERTEX_POINT('',#913);
#290=VERTEX_POINT('',#915);
#291=VERTEX_POINT('',#919);
#292=VERTEX_POINT('',#922);
#293=VERTEX_POINT('',#924);
#294=VERTEX_POINT('',#928);
#295=VERTEX_POINT('',#931);
#296=VERTEX_POINT('',#933);
#297=VERTEX_POINT('',#937);
#298=VERTEX_POINT('',#940);
#299=VERTEX_POINT('',#942);
#300=VERTEX_POINT('',#946);
#301=VERTEX_POINT('',#949);
#302=VERTEX_POINT('',#951);
#303=VERTEX_POINT('',#965);
#304=VERTEX_POINT('',#969);
#305=EDGE_CURVE('',#255,#256,#137,.T.);
#306=EDGE_CURVE('',#257,#255,#138,.T.);
#307=EDGE_CURVE('',#258,#257,#139,.T.);
#308=EDGE_CURVE('',#256,#258,#140,.T.);
#309=EDGE_CURVE('',#259,#260,#141,.T.);
#310=EDGE_CURVE('',#261,#259,#142,.T.);
#311=EDGE_CURVE('',#262,#261,#143,.T.);
#312=EDGE_CURVE('',#262,#260,#144,.T.);
#313=EDGE_CURVE('',#263,#264,#145,.T.);
#314=EDGE_CURVE('',#264,#265,#146,.T.);
#315=EDGE_CURVE('',#265,#266,#147,.T.);
#316=EDGE_CURVE('',#266,#263,#148,.T.);
#317=EDGE_CURVE('',#262,#267,#149,.T.);
#318=EDGE_CURVE('',#268,#267,#150,.T.);
#319=EDGE_CURVE('',#260,#268,#151,.T.);
#320=EDGE_CURVE('',#269,#255,#152,.T.);
#321=EDGE_CURVE('',#270,#269,#153,.T.);
#322=EDGE_CURVE('',#270,#257,#154,.T.);
#323=EDGE_CURVE('',#271,#272,#155,.T.);
#324=EDGE_CURVE('',#273,#271,#156,.T.);
#325=EDGE_CURVE('',#274,#273,#157,.T.);
#326=EDGE_CURVE('',#275,#274,#158,.T.);
#327=EDGE_CURVE('',#275,#272,#159,.T.);
#328=EDGE_CURVE('',#276,#261,#160,.T.);
#329=EDGE_CURVE('',#276,#267,#161,.T.);
#330=EDGE_CURVE('',#277,#256,#162,.T.);
#331=EDGE_CURVE('',#277,#269,#163,.T.);
#332=EDGE_CURVE('',#259,#278,#164,.T.);
#333=EDGE_CURVE('',#278,#276,#165,.T.);
#334=EDGE_CURVE('',#279,#279,#23,.T.);
#335=EDGE_CURVE('',#280,#277,#166,.T.);
#336=EDGE_CURVE('',#270,#280,#167,.T.);
#337=EDGE_CURVE('',#281,#282,#168,.T.);
#338=EDGE_CURVE('',#271,#281,#169,.T.);
#339=EDGE_CURVE('',#282,#272,#170,.T.);
#340=EDGE_CURVE('',#268,#278,#171,.T.);
#341=EDGE_CURVE('',#283,#284,#172,.T.);
#342=EDGE_CURVE('',#275,#283,#173,.T.);
#343=EDGE_CURVE('',#284,#274,#174,.T.);
#344=EDGE_CURVE('',#285,#281,#175,.T.);
#345=EDGE_CURVE('',#285,#273,#176,.T.);
#346=EDGE_CURVE('',#258,#280,#177,.T.);
#347=EDGE_CURVE('',#286,#286,#24,.T.);
#348=EDGE_CURVE('',#284,#285,#178,.T.);
#349=EDGE_CURVE('',#282,#283,#179,.T.);
#350=EDGE_CURVE('',#287,#287,#25,.T.);
#351=EDGE_CURVE('',#288,#288,#26,.T.);
#352=EDGE_CURVE('',#289,#289,#27,.T.);
#353=EDGE_CURVE('',#289,#290,#180,.T.);
#354=EDGE_CURVE('',#290,#290,#28,.T.);
#355=EDGE_CURVE('',#291,#291,#29,.T.);
#356=EDGE_CURVE('',#292,#292,#30,.T.);
#357=EDGE_CURVE('',#292,#293,#181,.T.);
#358=EDGE_CURVE('',#293,#293,#31,.T.);
#359=EDGE_CURVE('',#294,#294,#32,.T.);
#360=EDGE_CURVE('',#295,#295,#33,.T.);
#361=EDGE_CURVE('',#295,#296,#182,.T.);
#362=EDGE_CURVE('',#296,#296,#34,.T.);
#363=EDGE_CURVE('',#297,#297,#35,.T.);
#364=EDGE_CURVE('',#298,#298,#36,.T.);
#365=EDGE_CURVE('',#298,#299,#183,.T.);
#366=EDGE_CURVE('',#299,#299,#37,.T.);
#367=EDGE_CURVE('',#300,#300,#38,.T.);
#368=EDGE_CURVE('',#301,#264,#184,.T.);
#369=EDGE_CURVE('',#302,#301,#185,.T.);
#370=EDGE_CURVE('',#302,#265,#186,.T.);
#371=EDGE_CURVE('',#286,#297,#187,.T.);
#372=EDGE_CURVE('',#287,#294,#188,.T.);
#373=EDGE_CURVE('',#279,#291,#189,.T.);
#374=EDGE_CURVE('',#288,#300,#190,.T.);
#375=EDGE_CURVE('',#301,#303,#191,.T.);
#376=EDGE_CURVE('',#303,#263,#192,.T.);
#377=EDGE_CURVE('',#304,#266,#193,.T.);
#378=EDGE_CURVE('',#303,#304,#194,.T.);
#379=EDGE_CURVE('',#302,#304,#195,.T.);
#380=ORIENTED_EDGE('',*,*,#305,.F.);
#381=ORIENTED_EDGE('',*,*,#306,.F.);
#382=ORIENTED_EDGE('',*,*,#307,.F.);
#383=ORIENTED_EDGE('',*,*,#308,.F.);
#384=ORIENTED_EDGE('',*,*,#309,.F.);
#385=ORIENTED_EDGE('',*,*,#310,.F.);
#386=ORIENTED_EDGE('',*,*,#311,.F.);
#387=ORIENTED_EDGE('',*,*,#312,.T.);
#388=ORIENTED_EDGE('',*,*,#313,.T.);
#389=ORIENTED_EDGE('',*,*,#314,.T.);
#390=ORIENTED_EDGE('',*,*,#315,.T.);
#391=ORIENTED_EDGE('',*,*,#316,.T.);
#392=ORIENTED_EDGE('',*,*,#317,.T.);
#393=ORIENTED_EDGE('',*,*,#318,.F.);
#394=ORIENTED_EDGE('',*,*,#319,.F.);
#395=ORIENTED_EDGE('',*,*,#312,.F.);
#396=ORIENTED_EDGE('',*,*,#306,.T.);
#397=ORIENTED_EDGE('',*,*,#320,.F.);
#398=ORIENTED_EDGE('',*,*,#321,.F.);
#399=ORIENTED_EDGE('',*,*,#322,.T.);
#400=ORIENTED_EDGE('',*,*,#323,.F.);
#401=ORIENTED_EDGE('',*,*,#324,.F.);
#402=ORIENTED_EDGE('',*,*,#325,.F.);
#403=ORIENTED_EDGE('',*,*,#326,.F.);
#404=ORIENTED_EDGE('',*,*,#327,.T.);
#405=ORIENTED_EDGE('',*,*,#311,.T.);
#406=ORIENTED_EDGE('',*,*,#328,.F.);
#407=ORIENTED_EDGE('',*,*,#329,.T.);
#408=ORIENTED_EDGE('',*,*,#317,.F.);
#409=ORIENTED_EDGE('',*,*,#305,.T.);
#410=ORIENTED_EDGE('',*,*,#330,.F.);
#411=ORIENTED_EDGE('',*,*,#331,.T.);
#412=ORIENTED_EDGE('',*,*,#320,.T.);
#413=ORIENTED_EDGE('',*,*,#310,.T.);
#414=ORIENTED_EDGE('',*,*,#332,.T.);
#415=ORIENTED_EDGE('',*,*,#333,.T.);
#416=ORIENTED_EDGE('',*,*,#328,.T.);
#417=ORIENTED_EDGE('',*,*,#334,.T.);
#418=ORIENTED_EDGE('',*,*,#335,.F.);
#419=ORIENTED_EDGE('',*,*,#336,.F.);
#420=ORIENTED_EDGE('',*,*,#321,.T.);
#421=ORIENTED_EDGE('',*,*,#331,.F.);
#422=ORIENTED_EDGE('',*,*,#337,.F.);
#423=ORIENTED_EDGE('',*,*,#338,.F.);
#424=ORIENTED_EDGE('',*,*,#323,.T.);
#425=ORIENTED_EDGE('',*,*,#339,.F.);
#426=ORIENTED_EDGE('',*,*,#333,.F.);
#427=ORIENTED_EDGE('',*,*,#340,.F.);
#428=ORIENTED_EDGE('',*,*,#318,.T.);
#429=ORIENTED_EDGE('',*,*,#329,.F.);
#430=ORIENTED_EDGE('',*,*,#341,.F.);
#431=ORIENTED_EDGE('',*,*,#342,.F.);
#432=ORIENTED_EDGE('',*,*,#326,.T.);
#433=ORIENTED_EDGE('',*,*,#343,.F.);
#434=ORIENTED_EDGE('',*,*,#338,.T.);
#435=ORIENTED_EDGE('',*,*,#344,.F.);
#436=ORIENTED_EDGE('',*,*,#345,.T.);
#437=ORIENTED_EDGE('',*,*,#324,.T.);
#438=ORIENTED_EDGE('',*,*,#308,.T.);
#439=ORIENTED_EDGE('',*,*,#346,.T.);
#440=ORIENTED_EDGE('',*,*,#335,.T.);
#441=ORIENTED_EDGE('',*,*,#330,.T.);
#442=ORIENTED_EDGE('',*,*,#347,.T.);
#443=ORIENTED_EDGE('',*,*,#309,.T.);
#444=ORIENTED_EDGE('',*,*,#319,.T.);
#445=ORIENTED_EDGE('',*,*,#340,.T.);
#446=ORIENTED_EDGE('',*,*,#332,.F.);
#447=ORIENTED_EDGE('',*,*,#343,.T.);
#448=ORIENTED_EDGE('',*,*,#325,.T.);
#449=ORIENTED_EDGE('',*,*,#345,.F.);
#450=ORIENTED_EDGE('',*,*,#348,.F.);
#451=ORIENTED_EDGE('',*,*,#337,.T.);
#452=ORIENTED_EDGE('',*,*,#349,.T.);
#453=ORIENTED_EDGE('',*,*,#341,.T.);
#454=ORIENTED_EDGE('',*,*,#348,.T.);
#455=ORIENTED_EDGE('',*,*,#344,.T.);
#456=ORIENTED_EDGE('',*,*,#350,.T.);
#457=ORIENTED_EDGE('',*,*,#351,.T.);
#458=ORIENTED_EDGE('',*,*,#352,.F.);
#459=ORIENTED_EDGE('',*,*,#353,.T.);
#460=ORIENTED_EDGE('',*,*,#354,.T.);
#461=ORIENTED_EDGE('',*,*,#353,.F.);
#462=ORIENTED_EDGE('',*,*,#354,.F.);
#463=ORIENTED_EDGE('',*,*,#355,.F.);
#464=ORIENTED_EDGE('',*,*,#356,.F.);
#465=ORIENTED_EDGE('',*,*,#357,.T.);
#466=ORIENTED_EDGE('',*,*,#358,.T.);
#467=ORIENTED_EDGE('',*,*,#357,.F.);
#468=ORIENTED_EDGE('',*,*,#358,.F.);
#469=ORIENTED_EDGE('',*,*,#359,.F.);
#470=ORIENTED_EDGE('',*,*,#360,.F.);
#471=ORIENTED_EDGE('',*,*,#361,.T.);
#472=ORIENTED_EDGE('',*,*,#362,.T.);
#473=ORIENTED_EDGE('',*,*,#361,.F.);
#474=ORIENTED_EDGE('',*,*,#362,.F.);
#475=ORIENTED_EDGE('',*,*,#363,.F.);
#476=ORIENTED_EDGE('',*,*,#364,.F.);
#477=ORIENTED_EDGE('',*,*,#365,.T.);
#478=ORIENTED_EDGE('',*,*,#366,.T.);
#479=ORIENTED_EDGE('',*,*,#365,.F.);
#480=ORIENTED_EDGE('',*,*,#366,.F.);
#481=ORIENTED_EDGE('',*,*,#367,.F.);
#482=ORIENTED_EDGE('',*,*,#314,.F.);
#483=ORIENTED_EDGE('',*,*,#368,.F.);
#484=ORIENTED_EDGE('',*,*,#369,.F.);
#485=ORIENTED_EDGE('',*,*,#370,.T.);
#486=ORIENTED_EDGE('',*,*,#307,.T.);
#487=ORIENTED_EDGE('',*,*,#322,.F.);
#488=ORIENTED_EDGE('',*,*,#336,.T.);
#489=ORIENTED_EDGE('',*,*,#346,.F.);
#490=ORIENTED_EDGE('',*,*,#339,.T.);
#491=ORIENTED_EDGE('',*,*,#327,.F.);
#492=ORIENTED_EDGE('',*,*,#342,.T.);
#493=ORIENTED_EDGE('',*,*,#349,.F.);
#494=ORIENTED_EDGE('',*,*,#347,.F.);
#495=ORIENTED_EDGE('',*,*,#371,.T.);
#496=ORIENTED_EDGE('',*,*,#363,.T.);
#497=ORIENTED_EDGE('',*,*,#371,.F.);
#498=ORIENTED_EDGE('',*,*,#350,.F.);
#499=ORIENTED_EDGE('',*,*,#372,.T.);
#500=ORIENTED_EDGE('',*,*,#359,.T.);
#501=ORIENTED_EDGE('',*,*,#372,.F.);
#502=ORIENTED_EDGE('',*,*,#334,.F.);
#503=ORIENTED_EDGE('',*,*,#373,.T.);
#504=ORIENTED_EDGE('',*,*,#355,.T.);
#505=ORIENTED_EDGE('',*,*,#373,.F.);
#506=ORIENTED_EDGE('',*,*,#351,.F.);
#507=ORIENTED_EDGE('',*,*,#374,.T.);
#508=ORIENTED_EDGE('',*,*,#367,.T.);
#509=ORIENTED_EDGE('',*,*,#374,.F.);
#510=ORIENTED_EDGE('',*,*,#375,.F.);
#511=ORIENTED_EDGE('',*,*,#368,.T.);
#512=ORIENTED_EDGE('',*,*,#313,.F.);
#513=ORIENTED_EDGE('',*,*,#376,.F.);
#514=ORIENTED_EDGE('',*,*,#316,.F.);
#515=ORIENTED_EDGE('',*,*,#377,.F.);
#516=ORIENTED_EDGE('',*,*,#378,.F.);
#517=ORIENTED_EDGE('',*,*,#376,.T.);
#518=ORIENTED_EDGE('',*,*,#379,.T.);
#519=ORIENTED_EDGE('',*,*,#377,.T.);
#520=ORIENTED_EDGE('',*,*,#315,.F.);
#521=ORIENTED_EDGE('',*,*,#370,.F.);
#522=ORIENTED_EDGE('',*,*,#379,.F.);
#523=ORIENTED_EDGE('',*,*,#369,.T.);
#524=ORIENTED_EDGE('',*,*,#375,.T.);
#525=ORIENTED_EDGE('',*,*,#378,.T.);
#526=ORIENTED_EDGE('',*,*,#364,.T.);
#527=ORIENTED_EDGE('',*,*,#360,.T.);
#528=ORIENTED_EDGE('',*,*,#356,.T.);
#529=ORIENTED_EDGE('',*,*,#352,.T.);
#530=PLANE('',#604);
#531=PLANE('',#605);
#532=PLANE('',#606);
#533=PLANE('',#607);
#534=PLANE('',#608);
#535=PLANE('',#609);
#536=PLANE('',#611);
#537=PLANE('',#612);
#538=PLANE('',#613);
#539=PLANE('',#614);
#540=PLANE('',#615);
#541=PLANE('',#616);
#542=PLANE('',#618);
#543=PLANE('',#619);
#544=PLANE('',#620);
#545=PLANE('',#626);
#546=PLANE('',#631);
#547=PLANE('',#636);
#548=PLANE('',#641);
#549=PLANE('',#643);
#550=PLANE('',#644);
#551=PLANE('',#645);
#552=PLANE('',#650);
#553=PLANE('',#651);
#554=PLANE('',#652);
#555=PLANE('',#653);
#556=ADVANCED_FACE('',(#54),#530,.F.);
#557=ADVANCED_FACE('',(#55),#531,.F.);
#558=ADVANCED_FACE('',(#56,#39,#40,#41),#532,.T.);
#559=ADVANCED_FACE('',(#57),#533,.T.);
#560=ADVANCED_FACE('',(#58),#534,.F.);
#561=ADVANCED_FACE('',(#59,#42),#535,.T.);
#562=ADVANCED_FACE('',(#60),#536,.F.);
#563=ADVANCED_FACE('',(#61),#537,.F.);
#564=ADVANCED_FACE('',(#62),#538,.F.);
#565=ADVANCED_FACE('',(#63),#539,.F.);
#566=ADVANCED_FACE('',(#64),#540,.F.);
#567=ADVANCED_FACE('',(#65,#43),#541,.T.);
#568=ADVANCED_FACE('',(#66),#542,.F.);
#569=ADVANCED_FACE('',(#67),#543,.F.);
#570=ADVANCED_FACE('',(#68,#44,#45),#544,.T.);
#571=ADVANCED_FACE('',(#69),#15,.F.);
#572=ADVANCED_FACE('',(#70,#46),#545,.T.);
#573=ADVANCED_FACE('',(#71),#16,.F.);
#574=ADVANCED_FACE('',(#72,#47),#546,.T.);
#575=ADVANCED_FACE('',(#73),#17,.F.);
#576=ADVANCED_FACE('',(#74,#48),#547,.T.);
#577=ADVANCED_FACE('',(#75),#18,.F.);
#578=ADVANCED_FACE('',(#76,#49),#548,.T.);
#579=ADVANCED_FACE('',(#77),#549,.T.);
#580=ADVANCED_FACE('',(#78),#550,.T.);
#581=ADVANCED_FACE('',(#79),#551,.T.);
#582=ADVANCED_FACE('',(#80),#19,.F.);
#583=ADVANCED_FACE('',(#81),#20,.F.);
#584=ADVANCED_FACE('',(#82),#21,.F.);
#585=ADVANCED_FACE('',(#83),#22,.F.);
#586=ADVANCED_FACE('',(#84),#552,.T.);
#587=ADVANCED_FACE('',(#85),#553,.T.);
#588=ADVANCED_FACE('',(#86),#554,.T.);
#589=ADVANCED_FACE('',(#87,#50,#51,#52,#53),#555,.F.);
#590=CLOSED_SHELL('',(#556,#557,#558,#559,#560,#561,#562,#563,#564,#565,
#566,#567,#568,#569,#570,#571,#572,#573,#574,#575,#576,#577,#578,#579,#580,
#581,#582,#583,#584,#585,#586,#587,#588,#589));
#591=DERIVED_UNIT_ELEMENT(#593,1.);
#592=DERIVED_UNIT_ELEMENT(#980,-3.);
#593=(
MASS_UNIT()
NAMED_UNIT(*)
SI_UNIT(.KILO.,.GRAM.)
);
#594=DERIVED_UNIT((#591,#592));
#595=MEASURE_REPRESENTATION_ITEM('density measure',
POSITIVE_RATIO_MEASURE(1060.),#594);
#596=PROPERTY_DEFINITION_REPRESENTATION(#601,#598);
#597=PROPERTY_DEFINITION_REPRESENTATION(#602,#599);
#598=REPRESENTATION('material name',(#600),#977);
#599=REPRESENTATION('density',(#595),#977);
#600=DESCRIPTIVE_REPRESENTATION_ITEM('ABS Plastic','ABS Plastic');
#601=PROPERTY_DEFINITION('material property','material name',#987);
#602=PROPERTY_DEFINITION('material property','density of part',#987);
#603=AXIS2_PLACEMENT_3D('',#815,#654,#655);
#604=AXIS2_PLACEMENT_3D('',#816,#656,#657);
#605=AXIS2_PLACEMENT_3D('',#825,#662,#663);
#606=AXIS2_PLACEMENT_3D('',#834,#668,#669);
#607=AXIS2_PLACEMENT_3D('',#863,#685,#686);
#608=AXIS2_PLACEMENT_3D('',#867,#689,#690);
#609=AXIS2_PLACEMENT_3D('',#871,#693,#694);
#610=AXIS2_PLACEMENT_3D('',#876,#697,#698);
#611=AXIS2_PLACEMENT_3D('',#877,#699,#700);
#612=AXIS2_PLACEMENT_3D('',#881,#703,#704);
#613=AXIS2_PLACEMENT_3D('',#887,#708,#709);
#614=AXIS2_PLACEMENT_3D('',#889,#711,#712);
#615=AXIS2_PLACEMENT_3D('',#895,#716,#717);
#616=AXIS2_PLACEMENT_3D('',#899,#720,#721);
#617=AXIS2_PLACEMENT_3D('',#902,#723,#724);
#618=AXIS2_PLACEMENT_3D('',#903,#725,#726);
#619=AXIS2_PLACEMENT_3D('',#904,#727,#728);
#620=AXIS2_PLACEMENT_3D('',#906,#730,#731);
#621=AXIS2_PLACEMENT_3D('',#909,#733,#734);
#622=AXIS2_PLACEMENT_3D('',#911,#735,#736);
#623=AXIS2_PLACEMENT_3D('',#912,#737,#738);
#624=AXIS2_PLACEMENT_3D('',#914,#739,#740);
#625=AXIS2_PLACEMENT_3D('',#917,#742,#743);
#626=AXIS2_PLACEMENT_3D('',#918,#744,#745);
#627=AXIS2_PLACEMENT_3D('',#920,#746,#747);
#628=AXIS2_PLACEMENT_3D('',#921,#748,#749);
#629=AXIS2_PLACEMENT_3D('',#923,#750,#751);
#630=AXIS2_PLACEMENT_3D('',#926,#753,#754);
#631=AXIS2_PLACEMENT_3D('',#927,#755,#756);
#632=AXIS2_PLACEMENT_3D('',#929,#757,#758);
#633=AXIS2_PLACEMENT_3D('',#930,#759,#760);
#634=AXIS2_PLACEMENT_3D('',#932,#761,#762);
#635=AXIS2_PLACEMENT_3D('',#935,#764,#765);
#636=AXIS2_PLACEMENT_3D('',#936,#766,#767);
#637=AXIS2_PLACEMENT_3D('',#938,#768,#769);
#638=AXIS2_PLACEMENT_3D('',#939,#770,#771);
#639=AXIS2_PLACEMENT_3D('',#941,#772,#773);
#640=AXIS2_PLACEMENT_3D('',#944,#775,#776);
#641=AXIS2_PLACEMENT_3D('',#945,#777,#778);
#642=AXIS2_PLACEMENT_3D('',#947,#779,#780);
#643=AXIS2_PLACEMENT_3D('',#948,#781,#782);
#644=AXIS2_PLACEMENT_3D('',#954,#786,#787);
#645=AXIS2_PLACEMENT_3D('',#955,#788,#789);
#646=AXIS2_PLACEMENT_3D('',#956,#790,#791);
#647=AXIS2_PLACEMENT_3D('',#958,#793,#794);
#648=AXIS2_PLACEMENT_3D('',#960,#796,#797);
#649=AXIS2_PLACEMENT_3D('',#962,#799,#800);
#650=AXIS2_PLACEMENT_3D('',#964,#802,#803);
#651=AXIS2_PLACEMENT_3D('',#968,#806,#807);
#652=AXIS2_PLACEMENT_3D('',#972,#810,#811);
#653=AXIS2_PLACEMENT_3D('',#974,#813,#814);
#654=DIRECTION('axis',(0.,0.,1.));
#655=DIRECTION('refdir',(1.,0.,0.));
#656=DIRECTION('center_axis',(1.,0.,0.));
#657=DIRECTION('ref_axis',(0.,0.,-1.));
#658=DIRECTION('',(0.,0.,1.));
#659=DIRECTION('',(0.,1.,0.));
#660=DIRECTION('',(0.,0.,-1.));
#661=DIRECTION('',(0.,-1.,0.));
#662=DIRECTION('center_axis',(-1.,0.,0.));
#663=DIRECTION('ref_axis',(0.,0.,1.));
#664=DIRECTION('',(0.,0.,-1.));
#665=DIRECTION('',(0.,1.,0.));
#666=DIRECTION('',(0.,0.,1.));
#667=DIRECTION('',(0.,1.,0.));
#668=DIRECTION('center_axis',(0.,0.,1.));
#669=DIRECTION('ref_axis',(1.,0.,0.));
#670=DIRECTION('',(-1.,0.,0.));
#671=DIRECTION('',(0.,-1.,0.));
#672=DIRECTION('',(1.,0.,0.));
#673=DIRECTION('',(0.,1.,0.));
#674=DIRECTION('',(-1.,0.,0.));
#675=DIRECTION('',(0.,-1.,0.));
#676=DIRECTION('',(-1.,5.32907057775776E-16,0.));
#677=DIRECTION('',(-0.999999999999998,-6.14950516940627E-8,0.));
#678=DIRECTION('',(-6.90994175665596E-8,0.999999999999998,0.));
#679=DIRECTION('',(-1.,0.,0.));
#680=DIRECTION('',(6.90994230580882E-8,0.999999999999998,0.));
#681=DIRECTION('',(0.999999999999998,-6.14950524882455E-8,0.));
#682=DIRECTION('',(1.,5.32907057775776E-16,0.));
#683=DIRECTION('',(0.,-1.,0.));
#684=DIRECTION('',(1.,0.,0.));
#685=DIRECTION('center_axis',(0.,-1.,0.));
#686=DIRECTION('ref_axis',(1.,0.,0.));
#687=DIRECTION('',(1.,0.,0.));
#688=DIRECTION('',(0.,0.,-1.));
#689=DIRECTION('center_axis',(6.14950516940627E-8,-0.999999999999998,0.));
#690=DIRECTION('ref_axis',(-0.999999999999998,-6.14950516940627E-8,0.));
#691=DIRECTION('',(-0.999999999999998,-6.14950516940627E-8,0.));
#692=DIRECTION('',(0.,0.,-1.));
#693=DIRECTION('center_axis',(0.,0.,1.));
#694=DIRECTION('ref_axis',(-1.,0.,0.));
#695=DIRECTION('',(-1.,5.32907057775776E-16,0.));
#696=DIRECTION('',(0.,-1.,0.));
#697=DIRECTION('center_axis',(0.,0.,-1.));
#698=DIRECTION('ref_axis',(-1.,0.,0.));
#699=DIRECTION('center_axis',(-0.999999999999998,-6.90994175665596E-8,0.));
#700=DIRECTION('ref_axis',(-6.90994175665596E-8,0.999999999999998,0.));
#701=DIRECTION('',(-6.90994175665596E-8,0.999999999999998,0.));
#702=DIRECTION('',(0.,0.,1.));
#703=DIRECTION('center_axis',(-0.999999999999998,6.90994230580882E-8,0.));
#704=DIRECTION('ref_axis',(6.90994230580882E-8,0.999999999999998,0.));
#705=DIRECTION('',(6.90994230580882E-8,0.999999999999998,0.));
#706=DIRECTION('',(0.,0.,1.));
#707=DIRECTION('',(0.,0.,-1.));
#708=DIRECTION('center_axis',(1.,0.,0.));
#709=DIRECTION('ref_axis',(0.,-1.,0.));
#710=DIRECTION('',(0.,0.,1.));
#711=DIRECTION('center_axis',(1.,0.,0.));
#712=DIRECTION('ref_axis',(0.,-1.,0.));
#713=DIRECTION('',(0.,-1.,0.));
#714=DIRECTION('',(0.,0.,1.));
#715=DIRECTION('',(0.,0.,-1.));
#716=DIRECTION('center_axis',(6.14950524882455E-8,0.999999999999998,0.));
#717=DIRECTION('ref_axis',(0.999999999999998,-6.14950524882455E-8,0.));
#718=DIRECTION('',(0.999999999999998,-6.14950524882455E-8,0.));
#719=DIRECTION('',(0.,0.,-1.));
#720=DIRECTION('center_axis',(0.,0.,1.));
#721=DIRECTION('ref_axis',(-1.,0.,0.));
#722=DIRECTION('',(1.,0.,0.));
#723=DIRECTION('center_axis',(0.,0.,-1.));
#724=DIRECTION('ref_axis',(-1.,0.,0.));
#725=DIRECTION('center_axis',(-5.32907057775776E-16,-1.,0.));
#726=DIRECTION('ref_axis',(-1.,5.32907057775776E-16,0.));
#727=DIRECTION('center_axis',(-5.32907057775776E-16,1.,0.));
#728=DIRECTION('ref_axis',(1.,5.32907057775776E-16,0.));
#729=DIRECTION('',(1.,5.32907057775776E-16,0.));
#730=DIRECTION('center_axis',(0.,0.,1.));
#731=DIRECTION('ref_axis',(-1.,0.,0.));
#732=DIRECTION('',(-1.,0.,0.));
#733=DIRECTION('center_axis',(0.,0.,-1.));
#734=DIRECTION('ref_axis',(-1.,0.,0.));
#735=DIRECTION('center_axis',(0.,0.,-1.));
#736=DIRECTION('ref_axis',(-1.,0.,0.));
#737=DIRECTION('center_axis',(0.,0.,1.));
#738=DIRECTION('ref_axis',(1.,0.,0.));
#739=DIRECTION('center_axis',(0.,0.,1.));
#740=DIRECTION('ref_axis',(1.,0.,0.));
#741=DIRECTION('',(0.,0.,1.));
#742=DIRECTION('center_axis',(0.,0.,1.));
#743=DIRECTION('ref_axis',(1.,0.,0.));
#744=DIRECTION('center_axis',(0.,0.,-1.));
#745=DIRECTION('ref_axis',(1.,0.,0.));
#746=DIRECTION('center_axis',(0.,0.,-1.));
#747=DIRECTION('ref_axis',(1.,0.,0.));
#748=DIRECTION('center_axis',(0.,0.,1.));
#749=DIRECTION('ref_axis',(1.,0.,0.));
#750=DIRECTION('center_axis',(0.,0.,1.));
#751=DIRECTION('ref_axis',(1.,0.,0.));
#752=DIRECTION('',(0.,0.,1.));
#753=DIRECTION('center_axis',(0.,0.,1.));
#754=DIRECTION('ref_axis',(1.,0.,0.));
#755=DIRECTION('center_axis',(0.,0.,-1.));
#756=DIRECTION('ref_axis',(1.,0.,0.));
#757=DIRECTION('center_axis',(0.,0.,-1.));
#758=DIRECTION('ref_axis',(1.,0.,0.));
#759=DIRECTION('center_axis',(0.,0.,1.));
#760=DIRECTION('ref_axis',(1.,0.,0.));
#761=DIRECTION('center_axis',(0.,0.,1.));
#762=DIRECTION('ref_axis',(1.,0.,0.));
#763=DIRECTION('',(0.,0.,1.));
#764=DIRECTION('center_axis',(0.,0.,1.));
#765=DIRECTION('ref_axis',(1.,0.,0.));
#766=DIRECTION('center_axis',(0.,0.,-1.));
#767=DIRECTION('ref_axis',(1.,0.,0.));
#768=DIRECTION('center_axis',(0.,0.,-1.));
#769=DIRECTION('ref_axis',(1.,0.,0.));
#770=DIRECTION('center_axis',(0.,0.,1.));
#771=DIRECTION('ref_axis',(1.,0.,0.));
#772=DIRECTION('center_axis',(0.,0.,1.));
#773=DIRECTION('ref_axis',(1.,0.,0.));
#774=DIRECTION('',(0.,0.,1.));
#775=DIRECTION('center_axis',(0.,0.,1.));
#776=DIRECTION('ref_axis',(1.,0.,0.));
#777=DIRECTION('center_axis',(0.,0.,-1.));
#778=DIRECTION('ref_axis',(1.,0.,0.));
#779=DIRECTION('center_axis',(0.,0.,-1.));
#780=DIRECTION('ref_axis',(1.,0.,0.));
#781=DIRECTION('center_axis',(-1.,0.,0.));
#782=DIRECTION('ref_axis',(0.,-1.,0.));
#783=DIRECTION('',(0.,0.,1.));
#784=DIRECTION('',(0.,1.,0.));
#785=DIRECTION('',(0.,0.,1.));
#786=DIRECTION('center_axis',(0.,-1.,0.));
#787=DIRECTION('ref_axis',(1.,0.,0.));
#788=DIRECTION('center_axis',(0.,1.,0.));
#789=DIRECTION('ref_axis',(-1.,0.,0.));
#790=DIRECTION('center_axis',(0.,0.,1.));
#791=DIRECTION('ref_axis',(1.,0.,0.));
#792=DIRECTION('',(0.,0.,-1.));
#793=DIRECTION('center_axis',(0.,0.,1.));
#794=DIRECTION('ref_axis',(1.,0.,0.));
#795=DIRECTION('',(0.,0.,-1.));
#796=DIRECTION('center_axis',(0.,0.,1.));
#797=DIRECTION('ref_axis',(1.,0.,0.));
#798=DIRECTION('',(0.,0.,-1.));
#799=DIRECTION('center_axis',(0.,0.,1.));
#800=DIRECTION('ref_axis',(1.,0.,0.));
#801=DIRECTION('',(0.,0.,-1.));
#802=DIRECTION('center_axis',(0.,1.,0.));
#803=DIRECTION('ref_axis',(-1.,0.,0.));
#804=DIRECTION('',(1.,0.,0.));
#805=DIRECTION('',(0.,0.,1.));
#806=DIRECTION('center_axis',(1.,0.,0.));
#807=DIRECTION('ref_axis',(0.,1.,0.));
#808=DIRECTION('',(0.,0.,1.));
#809=DIRECTION('',(0.,-1.,0.));
#810=DIRECTION('center_axis',(0.,-1.,0.));
#811=DIRECTION('ref_axis',(1.,0.,0.));
#812=DIRECTION('',(1.,0.,0.));
#813=DIRECTION('center_axis',(0.,0.,1.));
#814=DIRECTION('ref_axis',(1.,0.,0.));
#815=CARTESIAN_POINT('',(0.,0.,0.));
#816=CARTESIAN_POINT('Origin',(15.0000002235174,23.4131949616554,21.0000003129244));
#817=CARTESIAN_POINT('',(15.0000002235174,31.5000009224258,5.00000007450581));
#818=CARTESIAN_POINT('',(15.0000002235174,31.5000009224258,21.));
#819=CARTESIAN_POINT('',(15.0000002235174,31.5000009224258,21.0000001564622));
#820=CARTESIAN_POINT('',(15.0000002235174,23.4131949616554,5.00000007450581));
#821=CARTESIAN_POINT('',(15.0000002235174,23.4131949616554,5.00000007450581));
#822=CARTESIAN_POINT('',(15.0000002235174,23.4131949616554,21.0000003129244));
#823=CARTESIAN_POINT('',(15.0000002235174,23.4131949616554,13.0000001564622));
#824=CARTESIAN_POINT('',(15.0000002235174,24.9565974808277,21.));
#825=CARTESIAN_POINT('Origin',(-15.0000002235174,23.4131949616554,5.00000007450581));
#826=CARTESIAN_POINT('',(-15.0000002235174,31.5,21.0000003129244));
#827=CARTESIAN_POINT('',(-15.0000002235174,31.5,5.00000007450581));
#828=CARTESIAN_POINT('',(-15.0000002235174,31.5,13.0000000372529));
#829=CARTESIAN_POINT('',(-15.0000002235174,23.4131949616554,21.0000003129244));
#830=CARTESIAN_POINT('',(-15.0000002235174,24.9565974808277,21.));
#831=CARTESIAN_POINT('',(-15.0000002235174,23.4131949616554,5.00000007450581));
#832=CARTESIAN_POINT('',(-15.0000002235174,23.4131949616554,5.0000000372529));
#833=CARTESIAN_POINT('',(-15.0000002235174,23.4131949616554,5.00000007450581));
#834=CARTESIAN_POINT('Origin',(0.,0.,5.));
#835=CARTESIAN_POINT('',(27.5,35.,5.));
#836=CARTESIAN_POINT('',(-27.5,35.,5.));
#837=CARTESIAN_POINT('',(-27.5,35.,5.));
#838=CARTESIAN_POINT('',(-27.5,-35.,5.));
#839=CARTESIAN_POINT('',(-27.5,-35.,5.));
#840=CARTESIAN_POINT('',(27.5,-35.,5.));
#841=CARTESIAN_POINT('',(-27.5,-35.,5.));
#842=CARTESIAN_POINT('',(27.5,35.,5.));
#843=CARTESIAN_POINT('',(-24.0000003576279,23.4131949616554,5.));
#844=CARTESIAN_POINT('',(-13.75,23.4131949616554,5.));
#845=CARTESIAN_POINT('',(-24.0000003576279,31.5,5.));
#846=CARTESIAN_POINT('',(-24.0000003576279,27.4565974808277,5.));
#847=CARTESIAN_POINT('',(-2.79396767943751E-7,31.5,5.));
#848=CARTESIAN_POINT('',(23.9999997988343,31.5000016583861,5.));
#849=CARTESIAN_POINT('',(-2.79396767943751E-7,31.5,5.));
#850=CARTESIAN_POINT('',(24.0000003576278,23.4131949616554,5.));
#851=CARTESIAN_POINT('',(24.0000000782311,27.4565991392138,5.));
#852=CARTESIAN_POINT('',(-13.75,23.4131949616554,5.));
#853=CARTESIAN_POINT('',(23.9999997988343,-31.5000016583861,5.));
#854=CARTESIAN_POINT('',(24.0000003576278,-23.4131966200415,5.));
#855=CARTESIAN_POINT('',(24.0000000782311,-27.4565991392138,5.));
#856=CARTESIAN_POINT('',(-2.79396767943751E-7,-31.5,5.));
#857=CARTESIAN_POINT('',(24.1654415865372,-31.5000014860551,5.));
#858=CARTESIAN_POINT('',(-24.0000003576279,-31.5,5.));
#859=CARTESIAN_POINT('',(-2.79396767943751E-7,-31.5,5.));
#860=CARTESIAN_POINT('',(-24.0000003576279,-23.4131949616554,5.));
#861=CARTESIAN_POINT('',(-24.0000003576279,-27.4565974808277,5.));
#862=CARTESIAN_POINT('',(13.75,-23.4131949616554,5.));
#863=CARTESIAN_POINT('Origin',(-27.5,23.4131949616554,5.));
#864=CARTESIAN_POINT('',(-24.0000003576279,23.4131949616554,21.));
#865=CARTESIAN_POINT('',(27.5,23.4131949616554,21.));
#866=CARTESIAN_POINT('',(-24.0000003576279,23.4131949616554,13.));
#867=CARTESIAN_POINT('Origin',(24.9999995027014,31.5000015373763,21.));
#868=CARTESIAN_POINT('',(23.9999997988343,31.5000016583861,21.));
#869=CARTESIAN_POINT('',(12.4999995976131,31.5000007686881,21.));
#870=CARTESIAN_POINT('',(23.9999997988343,31.5000014758813,21.));
#871=CARTESIAN_POINT('Origin',(0.,26.5,21.));
#872=CARTESIAN_POINT('',(-24.0000003576279,31.5,21.));
#873=CARTESIAN_POINT('',(-1.39698382639608E-7,31.5,21.));
#874=CARTESIAN_POINT('',(-24.0000003576279,29.,21.));
#875=CARTESIAN_POINT('',(-21.25,26.5,21.));
#876=CARTESIAN_POINT('Origin',(-19.25,26.5,21.));
#877=CARTESIAN_POINT('Origin',(24.0000003576278,23.4131966200415,21.));
#878=CARTESIAN_POINT('',(24.0000003576278,23.4131949616554,21.));
#879=CARTESIAN_POINT('',(24.0000002509796,24.9565991392138,21.));
#880=CARTESIAN_POINT('',(24.0000003576279,23.4131949616554,13.));
#881=CARTESIAN_POINT('Origin',(23.9999997988343,-31.5000016583861,21.));
#882=CARTESIAN_POINT('',(23.9999997988343,-31.5000016583861,21.));
#883=CARTESIAN_POINT('',(24.0000003576278,-23.4131966200415,21.));
#884=CARTESIAN_POINT('',(23.9999999715828,-29.0000016583861,21.));
#885=CARTESIAN_POINT('',(23.9999997988343,-31.5000014758813,21.));
#886=CARTESIAN_POINT('',(24.0000003576279,-23.4131949616554,13.));
#887=CARTESIAN_POINT('Origin',(-24.0000003576279,31.5,21.));
#888=CARTESIAN_POINT('',(-24.0000003576279,31.5,21.));
#889=CARTESIAN_POINT('Origin',(-24.0000003576279,-23.4131949616554,21.));
#890=CARTESIAN_POINT('',(-24.0000003576279,-23.4131949616554,21.));
#891=CARTESIAN_POINT('',(-24.0000003576279,-31.5,21.));
#892=CARTESIAN_POINT('',(-24.0000003576279,-24.9565974808277,21.));
#893=CARTESIAN_POINT('',(-24.0000003576279,-23.4131949616554,13.));
#894=CARTESIAN_POINT('',(-24.0000003576279,-31.5,21.));
#895=CARTESIAN_POINT('Origin',(-2.79396767943751E-7,-31.5,21.));
#896=CARTESIAN_POINT('',(-2.79396767943751E-7,-31.5,21.));
#897=CARTESIAN_POINT('',(-2.93436015192489E-7,-31.5,21.));
#898=CARTESIAN_POINT('',(-2.79396767943751E-7,-31.5,21.));
#899=CARTESIAN_POINT('Origin',(0.,26.5,21.));
#900=CARTESIAN_POINT('',(27.5,23.4131949616554,21.));
#901=CARTESIAN_POINT('',(17.25,26.5,21.));
#902=CARTESIAN_POINT('Origin',(19.25,26.5,21.));
#903=CARTESIAN_POINT('Origin',(-2.79396767943751E-7,31.5,21.));
#904=CARTESIAN_POINT('Origin',(-25.,-31.5,21.));
#905=CARTESIAN_POINT('',(-12.5,-31.5,21.));
#906=CARTESIAN_POINT('Origin',(0.,-26.5,21.));
#907=CARTESIAN_POINT('',(-27.5,-23.4131949616554,21.));
#908=CARTESIAN_POINT('',(-21.25,-26.5,21.));
#909=CARTESIAN_POINT('Origin',(-19.25,-26.5,21.));
#910=CARTESIAN_POINT('',(17.25,-26.5,21.));
#911=CARTESIAN_POINT('Origin',(19.25,-26.5,21.));
#912=CARTESIAN_POINT('Origin',(-19.25,26.5,0.));
#913=CARTESIAN_POINT('',(-22.25,26.5,0.));
#914=CARTESIAN_POINT('Origin',(-19.25,26.5,0.));
#915=CARTESIAN_POINT('',(-22.25,26.5,19.));
#916=CARTESIAN_POINT('',(-22.25,26.5,0.));
#917=CARTESIAN_POINT('Origin',(-19.25,26.5,19.));
#918=CARTESIAN_POINT('Origin',(-19.25,26.5,19.));
#919=CARTESIAN_POINT('',(-21.25,26.5,19.));
#920=CARTESIAN_POINT('Origin',(-19.25,26.5,19.));
#921=CARTESIAN_POINT('Origin',(-19.25,-26.5,0.));
#922=CARTESIAN_POINT('',(-22.25,-26.5,0.));
#923=CARTESIAN_POINT('Origin',(-19.25,-26.5,0.));
#924=CARTESIAN_POINT('',(-22.25,-26.5,19.));
#925=CARTESIAN_POINT('',(-22.25,-26.5,0.));
#926=CARTESIAN_POINT('Origin',(-19.25,-26.5,19.));
#927=CARTESIAN_POINT('Origin',(-19.25,-26.5,19.));
#928=CARTESIAN_POINT('',(-21.25,-26.5,19.));
#929=CARTESIAN_POINT('Origin',(-19.25,-26.5,19.));
#930=CARTESIAN_POINT('Origin',(19.25,26.5,0.));
#931=CARTESIAN_POINT('',(16.25,26.5,0.));
#932=CARTESIAN_POINT('Origin',(19.25,26.5,0.));
#933=CARTESIAN_POINT('',(16.25,26.5,19.));
#934=CARTESIAN_POINT('',(16.25,26.5,0.));
#935=CARTESIAN_POINT('Origin',(19.25,26.5,19.));
#936=CARTESIAN_POINT('Origin',(19.25,26.5,19.));
#937=CARTESIAN_POINT('',(17.25,26.5,19.));
#938=CARTESIAN_POINT('Origin',(19.25,26.5,19.));
#939=CARTESIAN_POINT('Origin',(19.25,-26.5,0.));
#940=CARTESIAN_POINT('',(16.25,-26.5,0.));
#941=CARTESIAN_POINT('Origin',(19.25,-26.5,0.));
#942=CARTESIAN_POINT('',(16.25,-26.5,19.));
#943=CARTESIAN_POINT('',(16.25,-26.5,0.));
#944=CARTESIAN_POINT('Origin',(19.25,-26.5,19.));
#945=CARTESIAN_POINT('Origin',(19.25,-26.5,19.));
#946=CARTESIAN_POINT('',(17.25,-26.5,19.));
#947=CARTESIAN_POINT('Origin',(19.25,-26.5,19.));
#948=CARTESIAN_POINT('Origin',(-27.5,35.,0.));
#949=CARTESIAN_POINT('',(-27.5,35.,0.));
#950=CARTESIAN_POINT('',(-27.5,35.,0.));
#951=CARTESIAN_POINT('',(-27.5,-35.,0.));
#952=CARTESIAN_POINT('',(-27.5,-35.,0.));
#953=CARTESIAN_POINT('',(-27.5,-35.,0.));
#954=CARTESIAN_POINT('Origin',(-27.5,23.4131949616554,5.));
#955=CARTESIAN_POINT('Origin',(27.5,-23.4131949616554,5.));
#956=CARTESIAN_POINT('Origin',(19.25,26.5,0.));
#957=CARTESIAN_POINT('',(17.25,26.5,0.));
#958=CARTESIAN_POINT('Origin',(-19.25,-26.5,0.));
#959=CARTESIAN_POINT('',(-21.25,-26.5,0.));
#960=CARTESIAN_POINT('Origin',(-19.25,26.5,0.));
#961=CARTESIAN_POINT('',(-21.25,26.5,0.));
#962=CARTESIAN_POINT('Origin',(19.25,-26.5,0.));
#963=CARTESIAN_POINT('',(17.25,-26.5,0.));
#964=CARTESIAN_POINT('Origin',(27.5,35.,0.));
#965=CARTESIAN_POINT('',(27.5,35.,0.));
#966=CARTESIAN_POINT('',(-27.5,35.,0.));
#967=CARTESIAN_POINT('',(27.5,35.,0.));
#968=CARTESIAN_POINT('Origin',(27.5,-35.,0.));
#969=CARTESIAN_POINT('',(27.5,-35.,0.));
#970=CARTESIAN_POINT('',(27.5,-35.,0.));
#971=CARTESIAN_POINT('',(27.5,35.,0.));
#972=CARTESIAN_POINT('Origin',(-27.5,-35.,0.));
#973=CARTESIAN_POINT('',(-27.5,-35.,0.));
#974=CARTESIAN_POINT('Origin',(0.,0.,0.));
#975=UNCERTAINTY_MEASURE_WITH_UNIT(LENGTH_MEASURE(0.01),#979,
'DISTANCE_ACCURACY_VALUE',
'Maximum model space distance between geometric entities at asserted c
onnectivities');
#976=UNCERTAINTY_MEASURE_WITH_UNIT(LENGTH_MEASURE(0.01),#979,
'DISTANCE_ACCURACY_VALUE',
'Maximum model space distance between geometric entities at asserted c
onnectivities');
#977=(
GEOMETRIC_REPRESENTATION_CONTEXT(3)
GLOBAL_UNCERTAINTY_ASSIGNED_CONTEXT((#975))
GLOBAL_UNIT_ASSIGNED_CONTEXT((#979,#981,#982))
REPRESENTATION_CONTEXT('','3D')
);
#978=(
GEOMETRIC_REPRESENTATION_CONTEXT(3)
GLOBAL_UNCERTAINTY_ASSIGNED_CONTEXT((#976))
GLOBAL_UNIT_ASSIGNED_CONTEXT((#979,#981,#982))
REPRESENTATION_CONTEXT('','3D')
);
#979=(
LENGTH_UNIT()
NAMED_UNIT(*)
SI_UNIT(.MILLI.,.METRE.)
);
#980=(
LENGTH_UNIT()
NAMED_UNIT(*)
SI_UNIT($,.METRE.)
);
#981=(
NAMED_UNIT(*)
PLANE_ANGLE_UNIT()
SI_UNIT($,.RADIAN.)
);
#982=(
NAMED_UNIT(*)
SI_UNIT($,.STERADIAN.)
SOLID_ANGLE_UNIT()
);
#983=SHAPE_DEFINITION_REPRESENTATION(#984,#985);
#984=PRODUCT_DEFINITION_SHAPE('',$,#987);
#985=SHAPE_REPRESENTATION('',(#603),#977);
#986=PRODUCT_DEFINITION_CONTEXT('part definition',#991,'design');
#987=PRODUCT_DEFINITION('2026-09-13-14-46-25-976','Board Case Top',#988,
#986);
#988=PRODUCT_DEFINITION_FORMATION('',$,#993);
#989=PRODUCT_RELATED_PRODUCT_CATEGORY('Board Case Top','Board Case Top',
(#993));
#990=APPLICATION_PROTOCOL_DEFINITION('international standard',
'automotive_design',2009,#991);
#991=APPLICATION_CONTEXT(
'Core Data for Automotive Mechanical Design Process');
#992=PRODUCT_CONTEXT('part definition',#991,'mechanical');
#993=PRODUCT('2026-09-13-14-46-25-976','Board Case Top',$,(#992));
#994=PRESENTATION_STYLE_ASSIGNMENT((#995));
#995=SURFACE_STYLE_USAGE(.BOTH.,#996);
#996=SURFACE_SIDE_STYLE('',(#997));
#997=SURFACE_STYLE_FILL_AREA(#998);
#998=FILL_AREA_STYLE('ABS (White)',(#999));
#999=FILL_AREA_STYLE_COLOUR('ABS (White)',#1000);
#1000=COLOUR_RGB('ABS (White)',0.964705882352941,0.964705882352941,0.952941176470588);
ENDSEC;
END-ISO-10303-21;
