ISO-10303-21;
HEADER;
/* Generated by software containing ST-Developer
 * from STEP Tools, Inc. (www.steptools.com) 
 */

FILE_DESCRIPTION(
/* description */ (''),
/* implementation_level */ '2;1');

FILE_NAME(
/* name */ 'Board Case Bottem.step',
/* time_stamp */ '2026-09-22T21:55:15-04:00',
/* author */ (''),
/* organization */ (''),
/* preprocessor_version */ 'ST-DEVELOPER v20.2',
/* originating_system */ 'Autodesk Translation Framework v15.15.0.0',
/* authorisation */ '');

FILE_SCHEMA (('AUTOMOTIVE_DESIGN { 1 0 10303 214 3 1 1 }'));
ENDSEC;

DATA;
#10=MECHANICAL_DESIGN_GEOMETRIC_PRESENTATION_REPRESENTATION('',(#13),#871);
#11=SHAPE_REPRESENTATION_RELATIONSHIP('SRR','None',#878,#12);
#12=ADVANCED_BREP_SHAPE_REPRESENTATION('',(#14),#870);
#13=STYLED_ITEM('',(#887),#14);
#14=MANIFOLD_SOLID_BREP('Body1',#539);
#15=CYLINDRICAL_SURFACE('',#575,2.);
#16=CYLINDRICAL_SURFACE('',#577,2.);
#17=CYLINDRICAL_SURFACE('',#579,2.);
#18=CYLINDRICAL_SURFACE('',#581,2.);
#19=FACE_BOUND('',#68,.T.);
#20=FACE_BOUND('',#69,.T.);
#21=FACE_BOUND('',#70,.T.);
#22=FACE_BOUND('',#71,.T.);
#23=FACE_BOUND('',#83,.T.);
#24=FACE_BOUND('',#91,.T.);
#25=FACE_BOUND('',#95,.T.);
#26=FACE_BOUND('',#96,.T.);
#27=FACE_BOUND('',#97,.T.);
#28=FACE_BOUND('',#98,.T.);
#29=CIRCLE('',#558,2.);
#30=CIRCLE('',#559,2.);
#31=CIRCLE('',#560,2.);
#32=CIRCLE('',#561,2.);
#33=CIRCLE('',#576,2.);
#34=CIRCLE('',#578,2.);
#35=CIRCLE('',#580,2.);
#36=CIRCLE('',#582,2.);
#37=FACE_OUTER_BOUND('',#63,.T.);
#38=FACE_OUTER_BOUND('',#64,.T.);
#39=FACE_OUTER_BOUND('',#65,.T.);
#40=FACE_OUTER_BOUND('',#66,.T.);
#41=FACE_OUTER_BOUND('',#67,.T.);
#42=FACE_OUTER_BOUND('',#72,.T.);
#43=FACE_OUTER_BOUND('',#73,.T.);
#44=FACE_OUTER_BOUND('',#74,.T.);
#45=FACE_OUTER_BOUND('',#75,.T.);
#46=FACE_OUTER_BOUND('',#76,.T.);
#47=FACE_OUTER_BOUND('',#77,.T.);
#48=FACE_OUTER_BOUND('',#78,.T.);
#49=FACE_OUTER_BOUND('',#79,.T.);
#50=FACE_OUTER_BOUND('',#80,.T.);
#51=FACE_OUTER_BOUND('',#81,.T.);
#52=FACE_OUTER_BOUND('',#82,.T.);
#53=FACE_OUTER_BOUND('',#84,.T.);
#54=FACE_OUTER_BOUND('',#85,.T.);
#55=FACE_OUTER_BOUND('',#86,.T.);
#56=FACE_OUTER_BOUND('',#87,.T.);
#57=FACE_OUTER_BOUND('',#88,.T.);
#58=FACE_OUTER_BOUND('',#89,.T.);
#59=FACE_OUTER_BOUND('',#90,.T.);
#60=FACE_OUTER_BOUND('',#92,.T.);
#61=FACE_OUTER_BOUND('',#93,.T.);
#62=FACE_OUTER_BOUND('',#94,.T.);
#63=EDGE_LOOP('',(#347,#348,#349,#350));
#64=EDGE_LOOP('',(#351,#352,#353,#354));
#65=EDGE_LOOP('',(#355,#356,#357,#358));
#66=EDGE_LOOP('',(#359,#360,#361,#362));
#67=EDGE_LOOP('',(#363,#364,#365,#366));
#68=EDGE_LOOP('',(#367));
#69=EDGE_LOOP('',(#368));
#70=EDGE_LOOP('',(#369));
#71=EDGE_LOOP('',(#370));
#72=EDGE_LOOP('',(#371,#372,#373,#374));
#73=EDGE_LOOP('',(#375,#376,#377,#378));
#74=EDGE_LOOP('',(#379,#380,#381,#382));
#75=EDGE_LOOP('',(#383,#384,#385,#386));
#76=EDGE_LOOP('',(#387,#388,#389,#390,#391,#392,#393,#394));
#77=EDGE_LOOP('',(#395,#396,#397,#398,#399,#400,#401,#402));
#78=EDGE_LOOP('',(#403,#404,#405,#406));
#79=EDGE_LOOP('',(#407,#408,#409,#410));
#80=EDGE_LOOP('',(#411,#412,#413,#414,#415,#416,#417,#418));
#81=EDGE_LOOP('',(#419,#420,#421,#422,#423,#424,#425,#426));
#82=EDGE_LOOP('',(#427,#428,#429,#430));
#83=EDGE_LOOP('',(#431,#432,#433,#434));
#84=EDGE_LOOP('',(#435,#436,#437,#438,#439,#440,#441,#442));
#85=EDGE_LOOP('',(#443,#444,#445,#446));
#86=EDGE_LOOP('',(#447,#448,#449,#450));
#87=EDGE_LOOP('',(#451,#452,#453,#454));
#88=EDGE_LOOP('',(#455,#456,#457,#458));
#89=EDGE_LOOP('',(#459,#460,#461,#462));
#90=EDGE_LOOP('',(#463,#464,#465,#466));
#91=EDGE_LOOP('',(#467,#468,#469,#470));
#92=EDGE_LOOP('',(#471,#472,#473,#474,#475,#476,#477,#478));
#93=EDGE_LOOP('',(#479,#480,#481,#482));
#94=EDGE_LOOP('',(#483,#484,#485,#486));
#95=EDGE_LOOP('',(#487));
#96=EDGE_LOOP('',(#488));
#97=EDGE_LOOP('',(#489));
#98=EDGE_LOOP('',(#490));
#99=LINE('',#725,#163);
#100=LINE('',#727,#164);
#101=LINE('',#729,#165);
#102=LINE('',#730,#166);
#103=LINE('',#733,#167);
#104=LINE('',#735,#168);
#105=LINE('',#736,#169);
#106=LINE('',#739,#170);
#107=LINE('',#741,#171);
#108=LINE('',#742,#172);
#109=LINE('',#744,#173);
#110=LINE('',#745,#174);
#111=LINE('',#749,#175);
#112=LINE('',#751,#176);
#113=LINE('',#753,#177);
#114=LINE('',#754,#178);
#115=LINE('',#766,#179);
#116=LINE('',#768,#180);
#117=LINE('',#770,#181);
#118=LINE('',#771,#182);
#119=LINE('',#775,#183);
#120=LINE('',#777,#184);
#121=LINE('',#779,#185);
#122=LINE('',#780,#186);
#123=LINE('',#783,#187);
#124=LINE('',#785,#188);
#125=LINE('',#786,#189);
#126=LINE('',#789,#190);
#127=LINE('',#791,#191);
#128=LINE('',#792,#192);
#129=LINE('',#795,#193);
#130=LINE('',#797,#194);
#131=LINE('',#799,#195);
#132=LINE('',#801,#196);
#133=LINE('',#803,#197);
#134=LINE('',#805,#198);
#135=LINE('',#806,#199);
#136=LINE('',#809,#200);
#137=LINE('',#811,#201);
#138=LINE('',#813,#202);
#139=LINE('',#814,#203);
#140=LINE('',#817,#204);
#141=LINE('',#819,#205);
#142=LINE('',#820,#206);
#143=LINE('',#822,#207);
#144=LINE('',#823,#208);
#145=LINE('',#826,#209);
#146=LINE('',#828,#210);
#147=LINE('',#829,#211);
#148=LINE('',#831,#212);
#149=LINE('',#832,#213);
#150=LINE('',#834,#214);
#151=LINE('',#835,#215);
#152=LINE('',#837,#216);
#153=LINE('',#839,#217);
#154=LINE('',#843,#218);
#155=LINE('',#847,#219);
#156=LINE('',#851,#220);
#157=LINE('',#855,#221);
#158=LINE('',#859,#222);
#159=LINE('',#860,#223);
#160=LINE('',#863,#224);
#161=LINE('',#864,#225);
#162=LINE('',#866,#226);
#163=VECTOR('',#591,10.);
#164=VECTOR('',#592,10.);
#165=VECTOR('',#593,10.);
#166=VECTOR('',#594,10.);
#167=VECTOR('',#597,10.);
#168=VECTOR('',#598,10.);
#169=VECTOR('',#599,10.);
#170=VECTOR('',#602,10.);
#171=VECTOR('',#603,10.);
#172=VECTOR('',#604,10.);
#173=VECTOR('',#607,10.);
#174=VECTOR('',#608,10.);
#175=VECTOR('',#611,10.);
#176=VECTOR('',#612,10.);
#177=VECTOR('',#613,10.);
#178=VECTOR('',#614,10.);
#179=VECTOR('',#625,10.);
#180=VECTOR('',#626,10.);
#181=VECTOR('',#627,10.);
#182=VECTOR('',#628,10.);
#183=VECTOR('',#631,10.);
#184=VECTOR('',#632,10.);
#185=VECTOR('',#633,10.);
#186=VECTOR('',#634,10.);
#187=VECTOR('',#637,10.);
#188=VECTOR('',#638,10.);
#189=VECTOR('',#639,10.);
#190=VECTOR('',#642,10.);
#191=VECTOR('',#643,10.);
#192=VECTOR('',#644,10.);
#193=VECTOR('',#647,10.);
#194=VECTOR('',#648,10.);
#195=VECTOR('',#649,10.);
#196=VECTOR('',#650,10.);
#197=VECTOR('',#651,10.);
#198=VECTOR('',#652,10.);
#199=VECTOR('',#653,10.);
#200=VECTOR('',#656,10.);
#201=VECTOR('',#657,10.);
#202=VECTOR('',#658,10.);
#203=VECTOR('',#659,10.);
#204=VECTOR('',#662,10.);
#205=VECTOR('',#663,10.);
#206=VECTOR('',#664,10.);
#207=VECTOR('',#667,10.);
#208=VECTOR('',#668,10.);
#209=VECTOR('',#671,10.);
#210=VECTOR('',#672,10.);
#211=VECTOR('',#673,10.);
#212=VECTOR('',#674,10.);
#213=VECTOR('',#675,10.);
#214=VECTOR('',#678,10.);
#215=VECTOR('',#679,10.);
#216=VECTOR('',#682,10.);
#217=VECTOR('',#685,10.);
#218=VECTOR('',#690,2.);
#219=VECTOR('',#695,2.);
#220=VECTOR('',#700,2.);
#221=VECTOR('',#705,2.);
#222=VECTOR('',#710,10.);
#223=VECTOR('',#711,10.);
#224=VECTOR('',#714,10.);
#225=VECTOR('',#715,10.);
#226=VECTOR('',#718,10.);
#227=VERTEX_POINT('',#723);
#228=VERTEX_POINT('',#724);
#229=VERTEX_POINT('',#726);
#230=VERTEX_POINT('',#728);
#231=VERTEX_POINT('',#732);
#232=VERTEX_POINT('',#734);
#233=VERTEX_POINT('',#738);
#234=VERTEX_POINT('',#740);
#235=VERTEX_POINT('',#747);
#236=VERTEX_POINT('',#748);
#237=VERTEX_POINT('',#750);
#238=VERTEX_POINT('',#752);
#239=VERTEX_POINT('',#755);
#240=VERTEX_POINT('',#757);
#241=VERTEX_POINT('',#759);
#242=VERTEX_POINT('',#761);
#243=VERTEX_POINT('',#764);
#244=VERTEX_POINT('',#765);
#245=VERTEX_POINT('',#767);
#246=VERTEX_POINT('',#769);
#247=VERTEX_POINT('',#773);
#248=VERTEX_POINT('',#774);
#249=VERTEX_POINT('',#776);
#250=VERTEX_POINT('',#778);
#251=VERTEX_POINT('',#782);
#252=VERTEX_POINT('',#784);
#253=VERTEX_POINT('',#788);
#254=VERTEX_POINT('',#790);
#255=VERTEX_POINT('',#794);
#256=VERTEX_POINT('',#796);
#257=VERTEX_POINT('',#798);
#258=VERTEX_POINT('',#800);
#259=VERTEX_POINT('',#802);
#260=VERTEX_POINT('',#804);
#261=VERTEX_POINT('',#808);
#262=VERTEX_POINT('',#810);
#263=VERTEX_POINT('',#812);
#264=VERTEX_POINT('',#816);
#265=VERTEX_POINT('',#818);
#266=VERTEX_POINT('',#825);
#267=VERTEX_POINT('',#827);
#268=VERTEX_POINT('',#830);
#269=VERTEX_POINT('',#842);
#270=VERTEX_POINT('',#846);
#271=VERTEX_POINT('',#850);
#272=VERTEX_POINT('',#854);
#273=VERTEX_POINT('',#858);
#274=VERTEX_POINT('',#862);
#275=EDGE_CURVE('',#227,#228,#99,.T.);
#276=EDGE_CURVE('',#229,#227,#100,.T.);
#277=EDGE_CURVE('',#230,#229,#101,.T.);
#278=EDGE_CURVE('',#230,#228,#102,.T.);
#279=EDGE_CURVE('',#228,#231,#103,.T.);
#280=EDGE_CURVE('',#232,#230,#104,.T.);
#281=EDGE_CURVE('',#232,#231,#105,.T.);
#282=EDGE_CURVE('',#231,#233,#106,.T.);
#283=EDGE_CURVE('',#234,#232,#107,.T.);
#284=EDGE_CURVE('',#234,#233,#108,.T.);
#285=EDGE_CURVE('',#233,#227,#109,.T.);
#286=EDGE_CURVE('',#229,#234,#110,.T.);
#287=EDGE_CURVE('',#235,#236,#111,.T.);
#288=EDGE_CURVE('',#237,#235,#112,.T.);
#289=EDGE_CURVE('',#238,#237,#113,.T.);
#290=EDGE_CURVE('',#236,#238,#114,.T.);
#291=EDGE_CURVE('',#239,#239,#29,.T.);
#292=EDGE_CURVE('',#240,#240,#30,.T.);
#293=EDGE_CURVE('',#241,#241,#31,.T.);
#294=EDGE_CURVE('',#242,#242,#32,.T.);
#295=EDGE_CURVE('',#243,#244,#115,.T.);
#296=EDGE_CURVE('',#244,#245,#116,.T.);
#297=EDGE_CURVE('',#246,#245,#117,.T.);
#298=EDGE_CURVE('',#243,#246,#118,.T.);
#299=EDGE_CURVE('',#247,#248,#119,.T.);
#300=EDGE_CURVE('',#249,#248,#120,.T.);
#301=EDGE_CURVE('',#250,#249,#121,.T.);
#302=EDGE_CURVE('',#250,#247,#122,.T.);
#303=EDGE_CURVE('',#245,#251,#123,.T.);
#304=EDGE_CURVE('',#252,#244,#124,.T.);
#305=EDGE_CURVE('',#251,#252,#125,.T.);
#306=EDGE_CURVE('',#253,#246,#126,.T.);
#307=EDGE_CURVE('',#254,#253,#127,.T.);
#308=EDGE_CURVE('',#243,#254,#128,.T.);
#309=EDGE_CURVE('',#253,#255,#129,.T.);
#310=EDGE_CURVE('',#255,#256,#130,.T.);
#311=EDGE_CURVE('',#256,#257,#131,.T.);
#312=EDGE_CURVE('',#257,#258,#132,.T.);
#313=EDGE_CURVE('',#258,#259,#133,.T.);
#314=EDGE_CURVE('',#259,#260,#134,.T.);
#315=EDGE_CURVE('',#260,#254,#135,.T.);
#316=EDGE_CURVE('',#261,#251,#136,.T.);
#317=EDGE_CURVE('',#262,#261,#137,.T.);
#318=EDGE_CURVE('',#262,#263,#138,.T.);
#319=EDGE_CURVE('',#263,#255,#139,.T.);
#320=EDGE_CURVE('',#247,#264,#140,.T.);
#321=EDGE_CURVE('',#265,#250,#141,.T.);
#322=EDGE_CURVE('',#264,#265,#142,.T.);
#323=EDGE_CURVE('',#258,#248,#143,.T.);
#324=EDGE_CURVE('',#249,#257,#144,.T.);
#325=EDGE_CURVE('',#252,#266,#145,.T.);
#326=EDGE_CURVE('',#266,#267,#146,.T.);
#327=EDGE_CURVE('',#267,#264,#147,.T.);
#328=EDGE_CURVE('',#265,#268,#148,.T.);
#329=EDGE_CURVE('',#268,#261,#149,.T.);
#330=EDGE_CURVE('',#267,#237,#150,.T.);
#331=EDGE_CURVE('',#235,#259,#151,.T.);
#332=EDGE_CURVE('',#266,#238,#152,.T.);
#333=EDGE_CURVE('',#260,#236,#153,.T.);
#334=EDGE_CURVE('',#239,#269,#154,.T.);
#335=EDGE_CURVE('',#269,#269,#33,.T.);
#336=EDGE_CURVE('',#241,#270,#155,.T.);
#337=EDGE_CURVE('',#270,#270,#34,.T.);
#338=EDGE_CURVE('',#242,#271,#156,.T.);
#339=EDGE_CURVE('',#271,#271,#35,.T.);
#340=EDGE_CURVE('',#240,#272,#157,.T.);
#341=EDGE_CURVE('',#272,#272,#36,.T.);
#342=EDGE_CURVE('',#273,#262,#158,.T.);
#343=EDGE_CURVE('',#273,#268,#159,.T.);
#344=EDGE_CURVE('',#274,#256,#160,.T.);
#345=EDGE_CURVE('',#274,#273,#161,.T.);
#346=EDGE_CURVE('',#263,#274,#162,.T.);
#347=ORIENTED_EDGE('',*,*,#275,.F.);
#348=ORIENTED_EDGE('',*,*,#276,.F.);
#349=ORIENTED_EDGE('',*,*,#277,.F.);
#350=ORIENTED_EDGE('',*,*,#278,.T.);
#351=ORIENTED_EDGE('',*,*,#279,.F.);
#352=ORIENTED_EDGE('',*,*,#278,.F.);
#353=ORIENTED_EDGE('',*,*,#280,.F.);
#354=ORIENTED_EDGE('',*,*,#281,.T.);
#355=ORIENTED_EDGE('',*,*,#282,.F.);
#356=ORIENTED_EDGE('',*,*,#281,.F.);
#357=ORIENTED_EDGE('',*,*,#283,.F.);
#358=ORIENTED_EDGE('',*,*,#284,.T.);
#359=ORIENTED_EDGE('',*,*,#285,.F.);
#360=ORIENTED_EDGE('',*,*,#284,.F.);
#361=ORIENTED_EDGE('',*,*,#286,.F.);
#362=ORIENTED_EDGE('',*,*,#276,.T.);
#363=ORIENTED_EDGE('',*,*,#287,.F.);
#364=ORIENTED_EDGE('',*,*,#288,.F.);
#365=ORIENTED_EDGE('',*,*,#289,.F.);
#366=ORIENTED_EDGE('',*,*,#290,.F.);
#367=ORIENTED_EDGE('',*,*,#291,.F.);
#368=ORIENTED_EDGE('',*,*,#292,.F.);
#369=ORIENTED_EDGE('',*,*,#293,.F.);
#370=ORIENTED_EDGE('',*,*,#294,.F.);
#371=ORIENTED_EDGE('',*,*,#295,.T.);
#372=ORIENTED_EDGE('',*,*,#296,.T.);
#373=ORIENTED_EDGE('',*,*,#297,.F.);
#374=ORIENTED_EDGE('',*,*,#298,.F.);
#375=ORIENTED_EDGE('',*,*,#299,.T.);
#376=ORIENTED_EDGE('',*,*,#300,.F.);
#377=ORIENTED_EDGE('',*,*,#301,.F.);
#378=ORIENTED_EDGE('',*,*,#302,.T.);
#379=ORIENTED_EDGE('',*,*,#303,.F.);
#380=ORIENTED_EDGE('',*,*,#296,.F.);
#381=ORIENTED_EDGE('',*,*,#304,.F.);
#382=ORIENTED_EDGE('',*,*,#305,.F.);
#383=ORIENTED_EDGE('',*,*,#306,.F.);
#384=ORIENTED_EDGE('',*,*,#307,.F.);
#385=ORIENTED_EDGE('',*,*,#308,.F.);
#386=ORIENTED_EDGE('',*,*,#298,.T.);
#387=ORIENTED_EDGE('',*,*,#307,.T.);
#388=ORIENTED_EDGE('',*,*,#309,.T.);
#389=ORIENTED_EDGE('',*,*,#310,.T.);
#390=ORIENTED_EDGE('',*,*,#311,.T.);
#391=ORIENTED_EDGE('',*,*,#312,.T.);
#392=ORIENTED_EDGE('',*,*,#313,.T.);
#393=ORIENTED_EDGE('',*,*,#314,.T.);
#394=ORIENTED_EDGE('',*,*,#315,.T.);
#395=ORIENTED_EDGE('',*,*,#306,.T.);
#396=ORIENTED_EDGE('',*,*,#297,.T.);
#397=ORIENTED_EDGE('',*,*,#303,.T.);
#398=ORIENTED_EDGE('',*,*,#316,.F.);
#399=ORIENTED_EDGE('',*,*,#317,.F.);
#400=ORIENTED_EDGE('',*,*,#318,.T.);
#401=ORIENTED_EDGE('',*,*,#319,.T.);
#402=ORIENTED_EDGE('',*,*,#309,.F.);
#403=ORIENTED_EDGE('',*,*,#320,.F.);
#404=ORIENTED_EDGE('',*,*,#302,.F.);
#405=ORIENTED_EDGE('',*,*,#321,.F.);
#406=ORIENTED_EDGE('',*,*,#322,.F.);
#407=ORIENTED_EDGE('',*,*,#323,.F.);
#408=ORIENTED_EDGE('',*,*,#312,.F.);
#409=ORIENTED_EDGE('',*,*,#324,.F.);
#410=ORIENTED_EDGE('',*,*,#300,.T.);
#411=ORIENTED_EDGE('',*,*,#305,.T.);
#412=ORIENTED_EDGE('',*,*,#325,.T.);
#413=ORIENTED_EDGE('',*,*,#326,.T.);
#414=ORIENTED_EDGE('',*,*,#327,.T.);
#415=ORIENTED_EDGE('',*,*,#322,.T.);
#416=ORIENTED_EDGE('',*,*,#328,.T.);
#417=ORIENTED_EDGE('',*,*,#329,.T.);
#418=ORIENTED_EDGE('',*,*,#316,.T.);
#419=ORIENTED_EDGE('',*,*,#320,.T.);
#420=ORIENTED_EDGE('',*,*,#327,.F.);
#421=ORIENTED_EDGE('',*,*,#330,.T.);
#422=ORIENTED_EDGE('',*,*,#288,.T.);
#423=ORIENTED_EDGE('',*,*,#331,.T.);
#424=ORIENTED_EDGE('',*,*,#313,.F.);
#425=ORIENTED_EDGE('',*,*,#323,.T.);
#426=ORIENTED_EDGE('',*,*,#299,.F.);
#427=ORIENTED_EDGE('',*,*,#330,.F.);
#428=ORIENTED_EDGE('',*,*,#326,.F.);
#429=ORIENTED_EDGE('',*,*,#332,.T.);
#430=ORIENTED_EDGE('',*,*,#289,.T.);
#431=ORIENTED_EDGE('',*,*,#283,.T.);
#432=ORIENTED_EDGE('',*,*,#280,.T.);
#433=ORIENTED_EDGE('',*,*,#277,.T.);
#434=ORIENTED_EDGE('',*,*,#286,.T.);
#435=ORIENTED_EDGE('',*,*,#304,.T.);
#436=ORIENTED_EDGE('',*,*,#295,.F.);
#437=ORIENTED_EDGE('',*,*,#308,.T.);
#438=ORIENTED_EDGE('',*,*,#315,.F.);
#439=ORIENTED_EDGE('',*,*,#333,.T.);
#440=ORIENTED_EDGE('',*,*,#290,.T.);
#441=ORIENTED_EDGE('',*,*,#332,.F.);
#442=ORIENTED_EDGE('',*,*,#325,.F.);
#443=ORIENTED_EDGE('',*,*,#333,.F.);
#444=ORIENTED_EDGE('',*,*,#314,.F.);
#445=ORIENTED_EDGE('',*,*,#331,.F.);
#446=ORIENTED_EDGE('',*,*,#287,.T.);
#447=ORIENTED_EDGE('',*,*,#291,.T.);
#448=ORIENTED_EDGE('',*,*,#334,.T.);
#449=ORIENTED_EDGE('',*,*,#335,.T.);
#450=ORIENTED_EDGE('',*,*,#334,.F.);
#451=ORIENTED_EDGE('',*,*,#293,.T.);
#452=ORIENTED_EDGE('',*,*,#336,.T.);
#453=ORIENTED_EDGE('',*,*,#337,.T.);
#454=ORIENTED_EDGE('',*,*,#336,.F.);
#455=ORIENTED_EDGE('',*,*,#294,.T.);
#456=ORIENTED_EDGE('',*,*,#338,.T.);
#457=ORIENTED_EDGE('',*,*,#339,.T.);
#458=ORIENTED_EDGE('',*,*,#338,.F.);
#459=ORIENTED_EDGE('',*,*,#292,.T.);
#460=ORIENTED_EDGE('',*,*,#340,.T.);
#461=ORIENTED_EDGE('',*,*,#341,.T.);
#462=ORIENTED_EDGE('',*,*,#340,.F.);
#463=ORIENTED_EDGE('',*,*,#342,.T.);
#464=ORIENTED_EDGE('',*,*,#317,.T.);
#465=ORIENTED_EDGE('',*,*,#329,.F.);
#466=ORIENTED_EDGE('',*,*,#343,.F.);
#467=ORIENTED_EDGE('',*,*,#282,.T.);
#468=ORIENTED_EDGE('',*,*,#285,.T.);
#469=ORIENTED_EDGE('',*,*,#275,.T.);
#470=ORIENTED_EDGE('',*,*,#279,.T.);
#471=ORIENTED_EDGE('',*,*,#324,.T.);
#472=ORIENTED_EDGE('',*,*,#311,.F.);
#473=ORIENTED_EDGE('',*,*,#344,.F.);
#474=ORIENTED_EDGE('',*,*,#345,.T.);
#475=ORIENTED_EDGE('',*,*,#343,.T.);
#476=ORIENTED_EDGE('',*,*,#328,.F.);
#477=ORIENTED_EDGE('',*,*,#321,.T.);
#478=ORIENTED_EDGE('',*,*,#301,.T.);
#479=ORIENTED_EDGE('',*,*,#346,.T.);
#480=ORIENTED_EDGE('',*,*,#344,.T.);
#481=ORIENTED_EDGE('',*,*,#310,.F.);
#482=ORIENTED_EDGE('',*,*,#319,.F.);
#483=ORIENTED_EDGE('',*,*,#318,.F.);
#484=ORIENTED_EDGE('',*,*,#342,.F.);
#485=ORIENTED_EDGE('',*,*,#345,.F.);
#486=ORIENTED_EDGE('',*,*,#346,.F.);
#487=ORIENTED_EDGE('',*,*,#341,.F.);
#488=ORIENTED_EDGE('',*,*,#339,.F.);
#489=ORIENTED_EDGE('',*,*,#337,.F.);
#490=ORIENTED_EDGE('',*,*,#335,.F.);
#491=PLANE('',#553);
#492=PLANE('',#554);
#493=PLANE('',#555);
#494=PLANE('',#556);
#495=PLANE('',#557);
#496=PLANE('',#562);
#497=PLANE('',#563);
#498=PLANE('',#564);
#499=PLANE('',#565);
#500=PLANE('',#566);
#501=PLANE('',#567);
#502=PLANE('',#568);
#503=PLANE('',#569);
#504=PLANE('',#570);
#505=PLANE('',#571);
#506=PLANE('',#572);
#507=PLANE('',#573);
#508=PLANE('',#574);
#509=PLANE('',#583);
#510=PLANE('',#584);
#511=PLANE('',#585);
#512=PLANE('',#586);
#513=ADVANCED_FACE('',(#37),#491,.F.);
#514=ADVANCED_FACE('',(#38),#492,.F.);
#515=ADVANCED_FACE('',(#39),#493,.F.);
#516=ADVANCED_FACE('',(#40),#494,.F.);
#517=ADVANCED_FACE('',(#41,#19,#20,#21,#22),#495,.T.);
#518=ADVANCED_FACE('',(#42),#496,.T.);
#519=ADVANCED_FACE('',(#43),#497,.T.);
#520=ADVANCED_FACE('',(#44),#498,.F.);
#521=ADVANCED_FACE('',(#45),#499,.F.);
#522=ADVANCED_FACE('',(#46),#500,.T.);
#523=ADVANCED_FACE('',(#47),#501,.T.);
#524=ADVANCED_FACE('',(#48),#502,.F.);
#525=ADVANCED_FACE('',(#49),#503,.F.);
#526=ADVANCED_FACE('',(#50),#504,.T.);
#527=ADVANCED_FACE('',(#51),#505,.T.);
#528=ADVANCED_FACE('',(#52,#23),#506,.T.);
#529=ADVANCED_FACE('',(#53),#507,.T.);
#530=ADVANCED_FACE('',(#54),#508,.T.);
#531=ADVANCED_FACE('',(#55),#15,.F.);
#532=ADVANCED_FACE('',(#56),#16,.F.);
#533=ADVANCED_FACE('',(#57),#17,.F.);
#534=ADVANCED_FACE('',(#58),#18,.F.);
#535=ADVANCED_FACE('',(#59,#24),#509,.T.);
#536=ADVANCED_FACE('',(#60),#510,.T.);
#537=ADVANCED_FACE('',(#61),#511,.T.);
#538=ADVANCED_FACE('',(#62,#25,#26,#27,#28),#512,.F.);
#539=CLOSED_SHELL('',(#513,#514,#515,#516,#517,#518,#519,#520,#521,#522,
#523,#524,#525,#526,#527,#528,#529,#530,#531,#532,#533,#534,#535,#536,#537,
#538));
#540=DERIVED_UNIT_ELEMENT(#542,1.);
#541=DERIVED_UNIT_ELEMENT(#873,-3.);
#542=(
MASS_UNIT()
NAMED_UNIT(*)
SI_UNIT(.KILO.,.GRAM.)
);
#543=DERIVED_UNIT((#540,#541));
#544=MEASURE_REPRESENTATION_ITEM('density measure',
POSITIVE_RATIO_MEASURE(1060.),#543);
#545=PROPERTY_DEFINITION_REPRESENTATION(#550,#547);
#546=PROPERTY_DEFINITION_REPRESENTATION(#551,#548);
#547=REPRESENTATION('material name',(#549),#870);
#548=REPRESENTATION('density',(#544),#870);
#549=DESCRIPTIVE_REPRESENTATION_ITEM('ABS Plastic','ABS Plastic');
#550=PROPERTY_DEFINITION('material property','material name',#880);
#551=PROPERTY_DEFINITION('material property','density of part',#880);
#552=AXIS2_PLACEMENT_3D('',#721,#587,#588);
#553=AXIS2_PLACEMENT_3D('',#722,#589,#590);
#554=AXIS2_PLACEMENT_3D('',#731,#595,#596);
#555=AXIS2_PLACEMENT_3D('',#737,#600,#601);
#556=AXIS2_PLACEMENT_3D('',#743,#605,#606);
#557=AXIS2_PLACEMENT_3D('',#746,#609,#610);
#558=AXIS2_PLACEMENT_3D('',#756,#615,#616);
#559=AXIS2_PLACEMENT_3D('',#758,#617,#618);
#560=AXIS2_PLACEMENT_3D('',#760,#619,#620);
#561=AXIS2_PLACEMENT_3D('',#762,#621,#622);
#562=AXIS2_PLACEMENT_3D('',#763,#623,#624);
#563=AXIS2_PLACEMENT_3D('',#772,#629,#630);
#564=AXIS2_PLACEMENT_3D('',#781,#635,#636);
#565=AXIS2_PLACEMENT_3D('',#787,#640,#641);
#566=AXIS2_PLACEMENT_3D('',#793,#645,#646);
#567=AXIS2_PLACEMENT_3D('',#807,#654,#655);
#568=AXIS2_PLACEMENT_3D('',#815,#660,#661);
#569=AXIS2_PLACEMENT_3D('',#821,#665,#666);
#570=AXIS2_PLACEMENT_3D('',#824,#669,#670);
#571=AXIS2_PLACEMENT_3D('',#833,#676,#677);
#572=AXIS2_PLACEMENT_3D('',#836,#680,#681);
#573=AXIS2_PLACEMENT_3D('',#838,#683,#684);
#574=AXIS2_PLACEMENT_3D('',#840,#686,#687);
#575=AXIS2_PLACEMENT_3D('',#841,#688,#689);
#576=AXIS2_PLACEMENT_3D('',#844,#691,#692);
#577=AXIS2_PLACEMENT_3D('',#845,#693,#694);
#578=AXIS2_PLACEMENT_3D('',#848,#696,#697);
#579=AXIS2_PLACEMENT_3D('',#849,#698,#699);
#580=AXIS2_PLACEMENT_3D('',#852,#701,#702);
#581=AXIS2_PLACEMENT_3D('',#853,#703,#704);
#582=AXIS2_PLACEMENT_3D('',#856,#706,#707);
#583=AXIS2_PLACEMENT_3D('',#857,#708,#709);
#584=AXIS2_PLACEMENT_3D('',#861,#712,#713);
#585=AXIS2_PLACEMENT_3D('',#865,#716,#717);
#586=AXIS2_PLACEMENT_3D('',#867,#719,#720);
#587=DIRECTION('axis',(0.,0.,1.));
#588=DIRECTION('refdir',(1.,0.,0.));
#589=DIRECTION('center_axis',(1.,0.,0.));
#590=DIRECTION('ref_axis',(0.,0.,1.));
#591=DIRECTION('',(0.,0.,-1.));
#592=DIRECTION('',(0.,-1.,0.));
#593=DIRECTION('',(0.,0.,1.));
#594=DIRECTION('',(0.,-1.,0.));
#595=DIRECTION('center_axis',(0.,0.,-1.));
#596=DIRECTION('ref_axis',(1.,0.,0.));
#597=DIRECTION('',(-1.,0.,0.));
#598=DIRECTION('',(1.,0.,0.));
#599=DIRECTION('',(0.,-1.,0.));
#600=DIRECTION('center_axis',(-1.,0.,0.));
#601=DIRECTION('ref_axis',(0.,0.,-1.));
#602=DIRECTION('',(0.,0.,1.));
#603=DIRECTION('',(0.,0.,-1.));
#604=DIRECTION('',(0.,-1.,0.));
#605=DIRECTION('center_axis',(0.,0.,1.));
#606=DIRECTION('ref_axis',(-1.,0.,0.));
#607=DIRECTION('',(1.,0.,0.));
#608=DIRECTION('',(-1.,0.,0.));
#609=DIRECTION('center_axis',(0.,0.,1.));
#610=DIRECTION('ref_axis',(-1.,0.,0.));
#611=DIRECTION('',(1.,0.,0.));
#612=DIRECTION('',(0.,1.,0.));
#613=DIRECTION('',(-1.,0.,0.));
#614=DIRECTION('',(0.,-1.,0.));
#615=DIRECTION('center_axis',(0.,0.,1.));
#616=DIRECTION('ref_axis',(1.,0.,0.));
#617=DIRECTION('center_axis',(0.,0.,1.));
#618=DIRECTION('ref_axis',(1.,0.,0.));
#619=DIRECTION('center_axis',(0.,0.,1.));
#620=DIRECTION('ref_axis',(1.,0.,0.));
#621=DIRECTION('center_axis',(0.,0.,1.));
#622=DIRECTION('ref_axis',(1.,0.,0.));
#623=DIRECTION('center_axis',(0.,0.,1.));
#624=DIRECTION('ref_axis',(1.,0.,0.));
#625=DIRECTION('',(0.,-1.,0.));
#626=DIRECTION('',(1.,0.,0.));
#627=DIRECTION('',(0.,-1.,8.88178419700125E-16));
#628=DIRECTION('',(1.,0.,0.));
#629=DIRECTION('center_axis',(0.,0.,1.));
#630=DIRECTION('ref_axis',(1.,0.,0.));
#631=DIRECTION('',(0.,1.,0.));
#632=DIRECTION('',(1.,0.,0.));
#633=DIRECTION('',(0.,1.,0.));
#634=DIRECTION('',(1.,0.,0.));
#635=DIRECTION('center_axis',(0.,-1.,8.88178419700126E-16));
#636=DIRECTION('ref_axis',(0.,-8.88178419700126E-16,-1.));
#637=DIRECTION('',(0.,8.88178419700126E-16,1.));
#638=DIRECTION('',(0.,-8.88178419700126E-16,-1.));
#639=DIRECTION('',(-1.,0.,0.));
#640=DIRECTION('center_axis',(0.,1.,0.));
#641=DIRECTION('ref_axis',(0.,0.,1.));
#642=DIRECTION('',(0.,0.,-1.));
#643=DIRECTION('',(1.,0.,0.));
#644=DIRECTION('',(0.,0.,1.));
#645=DIRECTION('center_axis',(0.,0.,1.));
#646=DIRECTION('ref_axis',(1.,0.,0.));
#647=DIRECTION('',(0.,1.,0.));
#648=DIRECTION('',(-1.,0.,0.));
#649=DIRECTION('',(0.,-1.,0.));
#650=DIRECTION('',(1.,0.,0.));
#651=DIRECTION('',(0.,1.,0.));
#652=DIRECTION('',(1.,0.,0.));
#653=DIRECTION('',(0.,-1.,0.));
#654=DIRECTION('center_axis',(1.,0.,0.));
#655=DIRECTION('ref_axis',(0.,1.,0.));
#656=DIRECTION('',(0.,1.,0.));
#657=DIRECTION('',(0.,0.,1.));
#658=DIRECTION('',(0.,1.,0.));
#659=DIRECTION('',(0.,0.,1.));
#660=DIRECTION('center_axis',(0.,-1.,0.));
#661=DIRECTION('ref_axis',(0.,0.,-1.));
#662=DIRECTION('',(0.,0.,1.));
#663=DIRECTION('',(0.,0.,-1.));
#664=DIRECTION('',(-1.,0.,0.));
#665=DIRECTION('center_axis',(0.,1.,0.));
#666=DIRECTION('ref_axis',(0.,0.,1.));
#667=DIRECTION('',(0.,0.,-1.));
#668=DIRECTION('',(0.,0.,1.));
#669=DIRECTION('center_axis',(0.,0.,1.));
#670=DIRECTION('ref_axis',(1.,0.,0.));
#671=DIRECTION('',(0.,-1.,0.));
#672=DIRECTION('',(-1.,0.,0.));
#673=DIRECTION('',(0.,1.,0.));
#674=DIRECTION('',(0.,-1.,0.));
#675=DIRECTION('',(1.,0.,0.));
#676=DIRECTION('center_axis',(1.,0.,0.));
#677=DIRECTION('ref_axis',(0.,1.,0.));
#678=DIRECTION('',(0.,0.,-1.));
#679=DIRECTION('',(0.,0.,1.));
#680=DIRECTION('center_axis',(0.,1.,0.));
#681=DIRECTION('ref_axis',(-1.,0.,0.));
#682=DIRECTION('',(0.,0.,-1.));
#683=DIRECTION('center_axis',(-1.,0.,0.));
#684=DIRECTION('ref_axis',(0.,-1.,0.));
#685=DIRECTION('',(0.,0.,-1.));
#686=DIRECTION('center_axis',(0.,-1.,0.));
#687=DIRECTION('ref_axis',(1.,0.,0.));
#688=DIRECTION('center_axis',(0.,0.,1.));
#689=DIRECTION('ref_axis',(1.,0.,0.));
#690=DIRECTION('',(0.,0.,-1.));
#691=DIRECTION('center_axis',(0.,0.,-1.));
#692=DIRECTION('ref_axis',(1.,0.,0.));
#693=DIRECTION('center_axis',(0.,0.,1.));
#694=DIRECTION('ref_axis',(1.,0.,0.));
#695=DIRECTION('',(0.,0.,-1.));
#696=DIRECTION('center_axis',(0.,0.,-1.));
#697=DIRECTION('ref_axis',(1.,0.,0.));
#698=DIRECTION('center_axis',(0.,0.,1.));
#699=DIRECTION('ref_axis',(1.,0.,0.));
#700=DIRECTION('',(0.,0.,-1.));
#701=DIRECTION('center_axis',(0.,0.,-1.));
#702=DIRECTION('ref_axis',(1.,0.,0.));
#703=DIRECTION('center_axis',(0.,0.,1.));
#704=DIRECTION('ref_axis',(1.,0.,0.));
#705=DIRECTION('',(0.,0.,-1.));
#706=DIRECTION('center_axis',(0.,0.,-1.));
#707=DIRECTION('ref_axis',(1.,0.,0.));
#708=DIRECTION('center_axis',(0.,-1.,0.));
#709=DIRECTION('ref_axis',(1.,0.,0.));
#710=DIRECTION('',(1.,0.,0.));
#711=DIRECTION('',(0.,0.,1.));
#712=DIRECTION('center_axis',(-1.,0.,0.));
#713=DIRECTION('ref_axis',(0.,-1.,0.));
#714=DIRECTION('',(0.,0.,1.));
#715=DIRECTION('',(0.,-1.,0.));
#716=DIRECTION('center_axis',(0.,1.,0.));
#717=DIRECTION('ref_axis',(-1.,0.,0.));
#718=DIRECTION('',(-1.,0.,0.));
#719=DIRECTION('center_axis',(0.,0.,1.));
#720=DIRECTION('ref_axis',(1.,0.,0.));
#721=CARTESIAN_POINT('',(0.,0.,0.));
#722=CARTESIAN_POINT('Origin',(10.9637634974486,-32.5,5.00000007450581));
#723=CARTESIAN_POINT('',(10.9637634974486,-35.,20.0000002980232));
#724=CARTESIAN_POINT('',(10.9637634974486,-35.,5.00000007450581));
#725=CARTESIAN_POINT('',(10.9637634974486,-35.,2.5000000372529));
#726=CARTESIAN_POINT('',(10.9637634974486,-32.5,20.0000002980232));
#727=CARTESIAN_POINT('',(10.9637634974486,-32.5,20.0000002980232));
#728=CARTESIAN_POINT('',(10.9637634974486,-32.5,5.00000007450581));
#729=CARTESIAN_POINT('',(10.9637634974486,-32.5,5.0000000372529));
#730=CARTESIAN_POINT('',(10.9637634974486,-32.5,5.00000007450581));
#731=CARTESIAN_POINT('Origin',(-5.00000007450581,-32.5,5.00000007450581));
#732=CARTESIAN_POINT('',(-5.00000007450581,-35.,5.00000007450581));
#733=CARTESIAN_POINT('',(-16.2500000372529,-35.,5.00000007450581));
#734=CARTESIAN_POINT('',(-5.00000007450581,-32.5,5.00000007450581));
#735=CARTESIAN_POINT('',(9.9999999627471,-32.5,5.00000007450581));
#736=CARTESIAN_POINT('',(-5.00000007450581,-32.5,5.00000007450581));
#737=CARTESIAN_POINT('Origin',(-5.00000007450581,-32.5,20.0000002980232));
#738=CARTESIAN_POINT('',(-5.00000007450581,-35.,20.0000002980232));
#739=CARTESIAN_POINT('',(-5.00000007450581,-35.,10.0000001490116));
#740=CARTESIAN_POINT('',(-5.00000007450581,-32.5,20.0000002980232));
#741=CARTESIAN_POINT('',(-5.00000007450581,-32.5,12.5000001490116));
#742=CARTESIAN_POINT('',(-5.00000007450581,-32.5,20.0000002980232));
#743=CARTESIAN_POINT('Origin',(10.9637634974486,-32.5,20.0000002980232));
#744=CARTESIAN_POINT('',(-8.26811825127568,-35.,20.0000002980232));
#745=CARTESIAN_POINT('',(17.9818817487243,-32.5,20.0000002980232));
#746=CARTESIAN_POINT('Origin',(4.44089209850063E-15,4.44089209850063E-15,
2.5));
#747=CARTESIAN_POINT('',(-25.,32.5,2.5));
#748=CARTESIAN_POINT('',(25.,32.5,2.5));
#749=CARTESIAN_POINT('',(-25.,32.5,2.5));
#750=CARTESIAN_POINT('',(-25.,-32.5,2.5));
#751=CARTESIAN_POINT('',(-25.,-32.5,2.5));
#752=CARTESIAN_POINT('',(25.,-32.5,2.5));
#753=CARTESIAN_POINT('',(25.,-32.5,2.5));
#754=CARTESIAN_POINT('',(25.,32.5,2.5));
#755=CARTESIAN_POINT('',(-21.25,-26.5,2.5));
#756=CARTESIAN_POINT('Origin',(-19.25,-26.5,2.5));
#757=CARTESIAN_POINT('',(17.25,26.5,2.5));
#758=CARTESIAN_POINT('Origin',(19.25,26.5,2.5));
#759=CARTESIAN_POINT('',(17.25,-26.5,2.5));
#760=CARTESIAN_POINT('Origin',(19.25,-26.5,2.5));
#761=CARTESIAN_POINT('',(-21.25,26.5,2.5));
#762=CARTESIAN_POINT('Origin',(-19.25,26.5,2.5));
#763=CARTESIAN_POINT('Origin',(0.,0.,5.));
#764=CARTESIAN_POINT('',(25.,22.5,4.99999999999998));
#765=CARTESIAN_POINT('',(25.,-22.5,5.00000000000002));
#766=CARTESIAN_POINT('',(25.,16.25,5.));
#767=CARTESIAN_POINT('',(27.5,-22.5,5.00000000000002));
#768=CARTESIAN_POINT('',(25.,-22.5,5.00000000000002));
#769=CARTESIAN_POINT('',(27.5,22.5,4.99999999999998));
#770=CARTESIAN_POINT('',(27.5,-28.75,5.00000000000003));
#771=CARTESIAN_POINT('',(25.,22.5,4.99999999999998));
#772=CARTESIAN_POINT('Origin',(0.,0.,5.));
#773=CARTESIAN_POINT('',(-25.,-17.5,5.));
#774=CARTESIAN_POINT('',(-25.,17.5,5.));
#775=CARTESIAN_POINT('',(-25.,-16.25,5.));
#776=CARTESIAN_POINT('',(-27.5,17.5,5.));
#777=CARTESIAN_POINT('',(-27.5,17.5,5.));
#778=CARTESIAN_POINT('',(-27.5,-17.5,5.));
#779=CARTESIAN_POINT('',(-27.5,8.75,5.));
#780=CARTESIAN_POINT('',(-27.5,-17.5,5.));
#781=CARTESIAN_POINT('Origin',(25.,-22.5,25.));
#782=CARTESIAN_POINT('',(27.5,-22.5,25.));
#783=CARTESIAN_POINT('',(27.5,-22.5,12.5));
#784=CARTESIAN_POINT('',(25.,-22.5,25.));
#785=CARTESIAN_POINT('',(25.,-22.5,15.));
#786=CARTESIAN_POINT('',(12.5,-22.5,25.));
#787=CARTESIAN_POINT('Origin',(25.,22.5,4.99999999999998));
#788=CARTESIAN_POINT('',(27.5,22.5,25.));
#789=CARTESIAN_POINT('',(27.5,22.5,2.49999999999999));
#790=CARTESIAN_POINT('',(25.,22.5,25.));
#791=CARTESIAN_POINT('',(12.5,22.5,25.));
#792=CARTESIAN_POINT('',(25.,22.5,4.99999999999999));
#793=CARTESIAN_POINT('Origin',(0.,0.,25.));
#794=CARTESIAN_POINT('',(27.5,35.,25.));
#795=CARTESIAN_POINT('',(27.5,-35.,25.));
#796=CARTESIAN_POINT('',(-27.5,35.,25.));
#797=CARTESIAN_POINT('',(27.5,35.,25.));
#798=CARTESIAN_POINT('',(-27.5,17.5,25.));
#799=CARTESIAN_POINT('',(-27.5,35.,25.));
#800=CARTESIAN_POINT('',(-25.,17.5,25.));
#801=CARTESIAN_POINT('',(-13.75,17.5,25.));
#802=CARTESIAN_POINT('',(-25.,32.5,25.));
#803=CARTESIAN_POINT('',(-25.,-32.5,25.));
#804=CARTESIAN_POINT('',(25.,32.5,25.));
#805=CARTESIAN_POINT('',(-25.,32.5,25.));
#806=CARTESIAN_POINT('',(25.,32.5,25.));
#807=CARTESIAN_POINT('Origin',(27.5,-35.,0.));
#808=CARTESIAN_POINT('',(27.5,-35.,25.));
#809=CARTESIAN_POINT('',(27.5,-35.,25.));
#810=CARTESIAN_POINT('',(27.5,-35.,0.));
#811=CARTESIAN_POINT('',(27.5,-35.,0.));
#812=CARTESIAN_POINT('',(27.5,35.,0.));
#813=CARTESIAN_POINT('',(27.5,-35.,0.));
#814=CARTESIAN_POINT('',(27.5,35.,0.));
#815=CARTESIAN_POINT('Origin',(-27.5,-17.5,25.));
#816=CARTESIAN_POINT('',(-25.,-17.5,25.));
#817=CARTESIAN_POINT('',(-25.,-17.5,15.));
#818=CARTESIAN_POINT('',(-27.5,-17.5,25.));
#819=CARTESIAN_POINT('',(-27.5,-17.5,12.5));
#820=CARTESIAN_POINT('',(-13.75,-17.5,25.));
#821=CARTESIAN_POINT('Origin',(-27.5,17.5,5.));
#822=CARTESIAN_POINT('',(-25.,17.5,5.));
#823=CARTESIAN_POINT('',(-27.5,17.5,2.5));
#824=CARTESIAN_POINT('Origin',(0.,0.,25.));
#825=CARTESIAN_POINT('',(25.,-32.5,25.));
#826=CARTESIAN_POINT('',(25.,32.5,25.));
#827=CARTESIAN_POINT('',(-25.,-32.5,25.));
#828=CARTESIAN_POINT('',(25.,-32.5,25.));
#829=CARTESIAN_POINT('',(-25.,-32.5,25.));
#830=CARTESIAN_POINT('',(-27.5,-35.,25.));
#831=CARTESIAN_POINT('',(-27.5,35.,25.));
#832=CARTESIAN_POINT('',(-27.5,-35.,25.));
#833=CARTESIAN_POINT('Origin',(-25.,-32.5,5.));
#834=CARTESIAN_POINT('',(-25.,-32.5,5.));
#835=CARTESIAN_POINT('',(-25.,32.5,5.));
#836=CARTESIAN_POINT('Origin',(25.,-32.5,5.));
#837=CARTESIAN_POINT('',(25.,-32.5,5.));
#838=CARTESIAN_POINT('Origin',(25.,32.5,5.));
#839=CARTESIAN_POINT('',(25.,32.5,5.));
#840=CARTESIAN_POINT('Origin',(-25.,32.5,5.));
#841=CARTESIAN_POINT('Origin',(-19.25,-26.5,0.));
#842=CARTESIAN_POINT('',(-21.25,-26.5,0.));
#843=CARTESIAN_POINT('',(-21.25,-26.5,0.));
#844=CARTESIAN_POINT('Origin',(-19.25,-26.5,0.));
#845=CARTESIAN_POINT('Origin',(19.25,-26.5,0.));
#846=CARTESIAN_POINT('',(17.25,-26.5,0.));
#847=CARTESIAN_POINT('',(17.25,-26.5,0.));
#848=CARTESIAN_POINT('Origin',(19.25,-26.5,0.));
#849=CARTESIAN_POINT('Origin',(-19.25,26.5,0.));
#850=CARTESIAN_POINT('',(-21.25,26.5,0.));
#851=CARTESIAN_POINT('',(-21.25,26.5,0.));
#852=CARTESIAN_POINT('Origin',(-19.25,26.5,0.));
#853=CARTESIAN_POINT('Origin',(19.25,26.5,0.));
#854=CARTESIAN_POINT('',(17.25,26.5,0.));
#855=CARTESIAN_POINT('',(17.25,26.5,0.));
#856=CARTESIAN_POINT('Origin',(19.25,26.5,0.));
#857=CARTESIAN_POINT('Origin',(-27.5,-35.,0.));
#858=CARTESIAN_POINT('',(-27.5,-35.,0.));
#859=CARTESIAN_POINT('',(-27.5,-35.,0.));
#860=CARTESIAN_POINT('',(-27.5,-35.,0.));
#861=CARTESIAN_POINT('Origin',(-27.5,35.,0.));
#862=CARTESIAN_POINT('',(-27.5,35.,0.));
#863=CARTESIAN_POINT('',(-27.5,35.,0.));
#864=CARTESIAN_POINT('',(-27.5,35.,0.));
#865=CARTESIAN_POINT('Origin',(27.5,35.,0.));
#866=CARTESIAN_POINT('',(27.5,35.,0.));
#867=CARTESIAN_POINT('Origin',(0.,0.,0.));
#868=UNCERTAINTY_MEASURE_WITH_UNIT(LENGTH_MEASURE(0.01),#872,
'DISTANCE_ACCURACY_VALUE',
'Maximum model space distance between geometric entities at asserted c
onnectivities');
#869=UNCERTAINTY_MEASURE_WITH_UNIT(LENGTH_MEASURE(0.01),#872,
'DISTANCE_ACCURACY_VALUE',
'Maximum model space distance between geometric entities at asserted c
onnectivities');
#870=(
GEOMETRIC_REPRESENTATION_CONTEXT(3)
GLOBAL_UNCERTAINTY_ASSIGNED_CONTEXT((#868))
GLOBAL_UNIT_ASSIGNED_CONTEXT((#872,#874,#875))
REPRESENTATION_CONTEXT('','3D')
);
#871=(
GEOMETRIC_REPRESENTATION_CONTEXT(3)
GLOBAL_UNCERTAINTY_ASSIGNED_CONTEXT((#869))
GLOBAL_UNIT_ASSIGNED_CONTEXT((#872,#874,#875))
REPRESENTATION_CONTEXT('','3D')
);
#872=(
LENGTH_UNIT()
NAMED_UNIT(*)
SI_UNIT(.MILLI.,.METRE.)
);
#873=(
LENGTH_UNIT()
NAMED_UNIT(*)
SI_UNIT($,.METRE.)
);
#874=(
NAMED_UNIT(*)
PLANE_ANGLE_UNIT()
SI_UNIT($,.RADIAN.)
);
#875=(
NAMED_UNIT(*)
SI_UNIT($,.STERADIAN.)
SOLID_ANGLE_UNIT()
);
#876=SHAPE_DEFINITION_REPRESENTATION(#877,#878);
#877=PRODUCT_DEFINITION_SHAPE('',$,#880);
#878=SHAPE_REPRESENTATION('',(#552),#870);
#879=PRODUCT_DEFINITION_CONTEXT('part definition',#884,'design');
#880=PRODUCT_DEFINITION('2026-09-12-19-48-28-623','Board Case Bottem',#881,
#879);
#881=PRODUCT_DEFINITION_FORMATION('',$,#886);
#882=PRODUCT_RELATED_PRODUCT_CATEGORY('Board Case Bottem',
'Board Case Bottem',(#886));
#883=APPLICATION_PROTOCOL_DEFINITION('international standard',
'automotive_design',2009,#884);
#884=APPLICATION_CONTEXT(
'Core Data for Automotive Mechanical Design Process');
#885=PRODUCT_CONTEXT('part definition',#884,'mechanical');
#886=PRODUCT('2026-09-12-19-48-28-623','Board Case Bottem',$,(#885));
#887=PRESENTATION_STYLE_ASSIGNMENT((#888));
#888=SURFACE_STYLE_USAGE(.BOTH.,#889);
#889=SURFACE_SIDE_STYLE('',(#890));
#890=SURFACE_STYLE_FILL_AREA(#891);
#891=FILL_AREA_STYLE('ABS (White)',(#892));
#892=FILL_AREA_STYLE_COLOUR('ABS (White)',#893);
#893=COLOUR_RGB('ABS (White)',0.964705882352941,0.964705882352941,0.952941176470588);
ENDSEC;
END-ISO-10303-21;
