ISO-10303-21;
HEADER;
/* Generated by software containing ST-Developer
 * from STEP Tools, Inc. (www.steptools.com) 
 */

FILE_DESCRIPTION(
/* description */ (''),
/* implementation_level */ '2;1');

FILE_NAME(
/* name */ 'Sensor case Bottem.step',
/* time_stamp */ '2026-09-22T21:45:50-04:00',
/* author */ (''),
/* organization */ (''),
/* preprocessor_version */ 'ST-DEVELOPER v20.2',
/* originating_system */ 'Autodesk Translation Framework v15.15.0.0',
/* authorisation */ '');

FILE_SCHEMA (('AUTOMOTIVE_DESIGN { 1 0 10303 214 3 1 1 }'));
ENDSEC;

DATA;
#10=MECHANICAL_DESIGN_GEOMETRIC_PRESENTATION_REPRESENTATION('',(#13),#572);
#11=SHAPE_REPRESENTATION_RELATIONSHIP('SRR','None',#579,#12);
#12=ADVANCED_BREP_SHAPE_REPRESENTATION('',(#14),#571);
#13=STYLED_ITEM('',(#588),#14);
#14=MANIFOLD_SOLID_BREP('Body1',#324);
#15=FACE_BOUND('',#61,.T.);
#16=FACE_BOUND('',#65,.T.);
#17=FACE_BOUND('',#68,.T.);
#18=FACE_BOUND('',#70,.T.);
#19=FACE_BOUND('',#71,.T.);
#20=FACE_BOUND('',#72,.T.);
#21=FACE_BOUND('',#73,.T.);
#22=FACE_BOUND('',#74,.T.);
#23=FACE_BOUND('',#75,.T.);
#24=FACE_BOUND('',#76,.T.);
#25=FACE_BOUND('',#77,.T.);
#26=FACE_BOUND('',#78,.T.);
#27=FACE_BOUND('',#89,.T.);
#28=FACE_BOUND('',#90,.T.);
#29=FACE_BOUND('',#91,.T.);
#30=FACE_BOUND('',#92,.T.);
#31=FACE_BOUND('',#93,.T.);
#32=FACE_BOUND('',#94,.T.);
#33=FACE_BOUND('',#95,.T.);
#34=FACE_BOUND('',#96,.T.);
#35=FACE_BOUND('',#97,.T.);
#36=PLANE('',#341);
#37=PLANE('',#348);
#38=PLANE('',#352);
#39=PLANE('',#354);
#40=PLANE('',#381);
#41=FACE_OUTER_BOUND('',#59,.T.);
#42=FACE_OUTER_BOUND('',#60,.T.);
#43=FACE_OUTER_BOUND('',#62,.T.);
#44=FACE_OUTER_BOUND('',#63,.T.);
#45=FACE_OUTER_BOUND('',#64,.T.);
#46=FACE_OUTER_BOUND('',#66,.T.);
#47=FACE_OUTER_BOUND('',#67,.T.);
#48=FACE_OUTER_BOUND('',#69,.T.);
#49=FACE_OUTER_BOUND('',#79,.T.);
#50=FACE_OUTER_BOUND('',#80,.T.);
#51=FACE_OUTER_BOUND('',#81,.T.);
#52=FACE_OUTER_BOUND('',#82,.T.);
#53=FACE_OUTER_BOUND('',#83,.T.);
#54=FACE_OUTER_BOUND('',#84,.T.);
#55=FACE_OUTER_BOUND('',#85,.T.);
#56=FACE_OUTER_BOUND('',#86,.T.);
#57=FACE_OUTER_BOUND('',#87,.T.);
#58=FACE_OUTER_BOUND('',#88,.T.);
#59=EDGE_LOOP('',(#215,#216,#217,#218));
#60=EDGE_LOOP('',(#219));
#61=EDGE_LOOP('',(#220));
#62=EDGE_LOOP('',(#221,#222,#223,#224));
#63=EDGE_LOOP('',(#225,#226,#227,#228));
#64=EDGE_LOOP('',(#229));
#65=EDGE_LOOP('',(#230));
#66=EDGE_LOOP('',(#231,#232,#233,#234));
#67=EDGE_LOOP('',(#235));
#68=EDGE_LOOP('',(#236));
#69=EDGE_LOOP('',(#237));
#70=EDGE_LOOP('',(#238));
#71=EDGE_LOOP('',(#239));
#72=EDGE_LOOP('',(#240));
#73=EDGE_LOOP('',(#241));
#74=EDGE_LOOP('',(#242));
#75=EDGE_LOOP('',(#243));
#76=EDGE_LOOP('',(#244));
#77=EDGE_LOOP('',(#245));
#78=EDGE_LOOP('',(#246));
#79=EDGE_LOOP('',(#247,#248,#249,#250));
#80=EDGE_LOOP('',(#251,#252,#253,#254));
#81=EDGE_LOOP('',(#255,#256,#257,#258));
#82=EDGE_LOOP('',(#259,#260,#261,#262));
#83=EDGE_LOOP('',(#263,#264,#265,#266));
#84=EDGE_LOOP('',(#267,#268,#269,#270));
#85=EDGE_LOOP('',(#271,#272,#273,#274));
#86=EDGE_LOOP('',(#275,#276,#277,#278));
#87=EDGE_LOOP('',(#279,#280,#281,#282));
#88=EDGE_LOOP('',(#283));
#89=EDGE_LOOP('',(#284));
#90=EDGE_LOOP('',(#285));
#91=EDGE_LOOP('',(#286));
#92=EDGE_LOOP('',(#287));
#93=EDGE_LOOP('',(#288));
#94=EDGE_LOOP('',(#289));
#95=EDGE_LOOP('',(#290));
#96=EDGE_LOOP('',(#291));
#97=EDGE_LOOP('',(#292));
#98=LINE('',#490,#111);
#99=LINE('',#497,#112);
#100=LINE('',#503,#113);
#101=LINE('',#510,#114);
#102=LINE('',#534,#115);
#103=LINE('',#538,#116);
#104=LINE('',#542,#117);
#105=LINE('',#546,#118);
#106=LINE('',#550,#119);
#107=LINE('',#554,#120);
#108=LINE('',#558,#121);
#109=LINE('',#562,#122);
#110=LINE('',#566,#123);
#111=VECTOR('',#388,2.00000002980232);
#112=VECTOR('',#397,4.);
#113=VECTOR('',#404,6.00000008940697);
#114=VECTOR('',#413,13.0000001937151);
#115=VECTOR('',#440,2.0000000372529);
#116=VECTOR('',#445,2.);
#117=VECTOR('',#450,2.0000000372529);
#118=VECTOR('',#455,2.0000000372529);
#119=VECTOR('',#460,2.);
#120=VECTOR('',#465,2.);
#121=VECTOR('',#470,2.);
#122=VECTOR('',#475,2.0000000372529);
#123=VECTOR('',#480,15.);
#124=CIRCLE('',#339,2.00000002980232);
#125=CIRCLE('',#340,2.00000002980232);
#126=CIRCLE('',#342,4.);
#127=CIRCLE('',#344,4.00000005960464);
#128=CIRCLE('',#346,6.00000008940697);
#129=CIRCLE('',#347,6.00000008940697);
#130=CIRCLE('',#350,13.0000001937151);
#131=CIRCLE('',#351,13.0000001937151);
#132=CIRCLE('',#353,15.0000002235174);
#133=CIRCLE('',#355,2.0000000372529);
#134=CIRCLE('',#356,2.);
#135=CIRCLE('',#357,2.);
#136=CIRCLE('',#358,2.);
#137=CIRCLE('',#359,2.0000000372529);
#138=CIRCLE('',#360,2.0000000372529);
#139=CIRCLE('',#361,2.);
#140=CIRCLE('',#362,2.0000000372529);
#141=CIRCLE('',#364,2.0000000372529);
#142=CIRCLE('',#366,2.);
#143=CIRCLE('',#368,2.0000000372529);
#144=CIRCLE('',#370,2.0000000372529);
#145=CIRCLE('',#372,2.);
#146=CIRCLE('',#374,2.);
#147=CIRCLE('',#376,2.);
#148=CIRCLE('',#378,2.0000000372529);
#149=CIRCLE('',#380,15.);
#150=VERTEX_POINT('',#487);
#151=VERTEX_POINT('',#489);
#152=VERTEX_POINT('',#493);
#153=VERTEX_POINT('',#496);
#154=VERTEX_POINT('',#500);
#155=VERTEX_POINT('',#502);
#156=VERTEX_POINT('',#507);
#157=VERTEX_POINT('',#509);
#158=VERTEX_POINT('',#513);
#159=VERTEX_POINT('',#516);
#160=VERTEX_POINT('',#518);
#161=VERTEX_POINT('',#520);
#162=VERTEX_POINT('',#522);
#163=VERTEX_POINT('',#524);
#164=VERTEX_POINT('',#526);
#165=VERTEX_POINT('',#528);
#166=VERTEX_POINT('',#530);
#167=VERTEX_POINT('',#533);
#168=VERTEX_POINT('',#537);
#169=VERTEX_POINT('',#541);
#170=VERTEX_POINT('',#545);
#171=VERTEX_POINT('',#549);
#172=VERTEX_POINT('',#553);
#173=VERTEX_POINT('',#557);
#174=VERTEX_POINT('',#561);
#175=VERTEX_POINT('',#565);
#176=EDGE_CURVE('',#150,#150,#124,.T.);
#177=EDGE_CURVE('',#150,#151,#98,.T.);
#178=EDGE_CURVE('',#151,#151,#125,.T.);
#179=EDGE_CURVE('',#152,#152,#126,.T.);
#180=EDGE_CURVE('',#152,#153,#99,.T.);
#181=EDGE_CURVE('',#153,#153,#127,.T.);
#182=EDGE_CURVE('',#154,#154,#128,.T.);
#183=EDGE_CURVE('',#154,#155,#100,.T.);
#184=EDGE_CURVE('',#155,#155,#129,.T.);
#185=EDGE_CURVE('',#156,#156,#130,.T.);
#186=EDGE_CURVE('',#156,#157,#101,.T.);
#187=EDGE_CURVE('',#157,#157,#131,.T.);
#188=EDGE_CURVE('',#158,#158,#132,.T.);
#189=EDGE_CURVE('',#159,#159,#133,.T.);
#190=EDGE_CURVE('',#160,#160,#134,.T.);
#191=EDGE_CURVE('',#161,#161,#135,.T.);
#192=EDGE_CURVE('',#162,#162,#136,.T.);
#193=EDGE_CURVE('',#163,#163,#137,.T.);
#194=EDGE_CURVE('',#164,#164,#138,.T.);
#195=EDGE_CURVE('',#165,#165,#139,.T.);
#196=EDGE_CURVE('',#166,#166,#140,.T.);
#197=EDGE_CURVE('',#166,#167,#102,.T.);
#198=EDGE_CURVE('',#167,#167,#141,.T.);
#199=EDGE_CURVE('',#165,#168,#103,.T.);
#200=EDGE_CURVE('',#168,#168,#142,.T.);
#201=EDGE_CURVE('',#164,#169,#104,.T.);
#202=EDGE_CURVE('',#169,#169,#143,.T.);
#203=EDGE_CURVE('',#163,#170,#105,.T.);
#204=EDGE_CURVE('',#170,#170,#144,.T.);
#205=EDGE_CURVE('',#162,#171,#106,.T.);
#206=EDGE_CURVE('',#171,#171,#145,.T.);
#207=EDGE_CURVE('',#161,#172,#107,.T.);
#208=EDGE_CURVE('',#172,#172,#146,.T.);
#209=EDGE_CURVE('',#160,#173,#108,.T.);
#210=EDGE_CURVE('',#173,#173,#147,.T.);
#211=EDGE_CURVE('',#159,#174,#109,.T.);
#212=EDGE_CURVE('',#174,#174,#148,.T.);
#213=EDGE_CURVE('',#158,#175,#110,.T.);
#214=EDGE_CURVE('',#175,#175,#149,.T.);
#215=ORIENTED_EDGE('',*,*,#176,.F.);
#216=ORIENTED_EDGE('',*,*,#177,.T.);
#217=ORIENTED_EDGE('',*,*,#178,.F.);
#218=ORIENTED_EDGE('',*,*,#177,.F.);
#219=ORIENTED_EDGE('',*,*,#179,.F.);
#220=ORIENTED_EDGE('',*,*,#176,.T.);
#221=ORIENTED_EDGE('',*,*,#179,.T.);
#222=ORIENTED_EDGE('',*,*,#180,.T.);
#223=ORIENTED_EDGE('',*,*,#181,.F.);
#224=ORIENTED_EDGE('',*,*,#180,.F.);
#225=ORIENTED_EDGE('',*,*,#182,.F.);
#226=ORIENTED_EDGE('',*,*,#183,.T.);
#227=ORIENTED_EDGE('',*,*,#184,.F.);
#228=ORIENTED_EDGE('',*,*,#183,.F.);
#229=ORIENTED_EDGE('',*,*,#182,.T.);
#230=ORIENTED_EDGE('',*,*,#178,.T.);
#231=ORIENTED_EDGE('',*,*,#185,.F.);
#232=ORIENTED_EDGE('',*,*,#186,.T.);
#233=ORIENTED_EDGE('',*,*,#187,.F.);
#234=ORIENTED_EDGE('',*,*,#186,.F.);
#235=ORIENTED_EDGE('',*,*,#188,.T.);
#236=ORIENTED_EDGE('',*,*,#185,.T.);
#237=ORIENTED_EDGE('',*,*,#187,.T.);
#238=ORIENTED_EDGE('',*,*,#189,.T.);
#239=ORIENTED_EDGE('',*,*,#190,.T.);
#240=ORIENTED_EDGE('',*,*,#191,.T.);
#241=ORIENTED_EDGE('',*,*,#192,.T.);
#242=ORIENTED_EDGE('',*,*,#193,.T.);
#243=ORIENTED_EDGE('',*,*,#194,.T.);
#244=ORIENTED_EDGE('',*,*,#195,.T.);
#245=ORIENTED_EDGE('',*,*,#196,.T.);
#246=ORIENTED_EDGE('',*,*,#184,.T.);
#247=ORIENTED_EDGE('',*,*,#196,.F.);
#248=ORIENTED_EDGE('',*,*,#197,.T.);
#249=ORIENTED_EDGE('',*,*,#198,.T.);
#250=ORIENTED_EDGE('',*,*,#197,.F.);
#251=ORIENTED_EDGE('',*,*,#195,.F.);
#252=ORIENTED_EDGE('',*,*,#199,.T.);
#253=ORIENTED_EDGE('',*,*,#200,.T.);
#254=ORIENTED_EDGE('',*,*,#199,.F.);
#255=ORIENTED_EDGE('',*,*,#194,.F.);
#256=ORIENTED_EDGE('',*,*,#201,.T.);
#257=ORIENTED_EDGE('',*,*,#202,.T.);
#258=ORIENTED_EDGE('',*,*,#201,.F.);
#259=ORIENTED_EDGE('',*,*,#193,.F.);
#260=ORIENTED_EDGE('',*,*,#203,.T.);
#261=ORIENTED_EDGE('',*,*,#204,.T.);
#262=ORIENTED_EDGE('',*,*,#203,.F.);
#263=ORIENTED_EDGE('',*,*,#192,.F.);
#264=ORIENTED_EDGE('',*,*,#205,.T.);
#265=ORIENTED_EDGE('',*,*,#206,.T.);
#266=ORIENTED_EDGE('',*,*,#205,.F.);
#267=ORIENTED_EDGE('',*,*,#191,.F.);
#268=ORIENTED_EDGE('',*,*,#207,.T.);
#269=ORIENTED_EDGE('',*,*,#208,.T.);
#270=ORIENTED_EDGE('',*,*,#207,.F.);
#271=ORIENTED_EDGE('',*,*,#190,.F.);
#272=ORIENTED_EDGE('',*,*,#209,.T.);
#273=ORIENTED_EDGE('',*,*,#210,.T.);
#274=ORIENTED_EDGE('',*,*,#209,.F.);
#275=ORIENTED_EDGE('',*,*,#189,.F.);
#276=ORIENTED_EDGE('',*,*,#211,.T.);
#277=ORIENTED_EDGE('',*,*,#212,.T.);
#278=ORIENTED_EDGE('',*,*,#211,.F.);
#279=ORIENTED_EDGE('',*,*,#188,.F.);
#280=ORIENTED_EDGE('',*,*,#213,.T.);
#281=ORIENTED_EDGE('',*,*,#214,.T.);
#282=ORIENTED_EDGE('',*,*,#213,.F.);
#283=ORIENTED_EDGE('',*,*,#214,.F.);
#284=ORIENTED_EDGE('',*,*,#198,.F.);
#285=ORIENTED_EDGE('',*,*,#200,.F.);
#286=ORIENTED_EDGE('',*,*,#202,.F.);
#287=ORIENTED_EDGE('',*,*,#204,.F.);
#288=ORIENTED_EDGE('',*,*,#206,.F.);
#289=ORIENTED_EDGE('',*,*,#208,.F.);
#290=ORIENTED_EDGE('',*,*,#210,.F.);
#291=ORIENTED_EDGE('',*,*,#212,.F.);
#292=ORIENTED_EDGE('',*,*,#181,.T.);
#293=CYLINDRICAL_SURFACE('',#338,2.00000002980232);
#294=CYLINDRICAL_SURFACE('',#343,4.);
#295=CYLINDRICAL_SURFACE('',#345,6.00000008940697);
#296=CYLINDRICAL_SURFACE('',#349,13.0000001937151);
#297=CYLINDRICAL_SURFACE('',#363,2.0000000372529);
#298=CYLINDRICAL_SURFACE('',#365,2.);
#299=CYLINDRICAL_SURFACE('',#367,2.0000000372529);
#300=CYLINDRICAL_SURFACE('',#369,2.0000000372529);
#301=CYLINDRICAL_SURFACE('',#371,2.);
#302=CYLINDRICAL_SURFACE('',#373,2.);
#303=CYLINDRICAL_SURFACE('',#375,2.);
#304=CYLINDRICAL_SURFACE('',#377,2.0000000372529);
#305=CYLINDRICAL_SURFACE('',#379,15.);
#306=ADVANCED_FACE('',(#41),#293,.F.);
#307=ADVANCED_FACE('',(#42,#15),#36,.F.);
#308=ADVANCED_FACE('',(#43),#294,.F.);
#309=ADVANCED_FACE('',(#44),#295,.T.);
#310=ADVANCED_FACE('',(#45,#16),#37,.T.);
#311=ADVANCED_FACE('',(#46),#296,.F.);
#312=ADVANCED_FACE('',(#47,#17),#38,.T.);
#313=ADVANCED_FACE('',(#48,#18,#19,#20,#21,#22,#23,#24,#25,#26),#39,.T.);
#314=ADVANCED_FACE('',(#49),#297,.F.);
#315=ADVANCED_FACE('',(#50),#298,.F.);
#316=ADVANCED_FACE('',(#51),#299,.F.);
#317=ADVANCED_FACE('',(#52),#300,.F.);
#318=ADVANCED_FACE('',(#53),#301,.F.);
#319=ADVANCED_FACE('',(#54),#302,.F.);
#320=ADVANCED_FACE('',(#55),#303,.F.);
#321=ADVANCED_FACE('',(#56),#304,.F.);
#322=ADVANCED_FACE('',(#57),#305,.T.);
#323=ADVANCED_FACE('',(#58,#27,#28,#29,#30,#31,#32,#33,#34,#35),#40,.F.);
#324=CLOSED_SHELL('',(#306,#307,#308,#309,#310,#311,#312,#313,#314,#315,
#316,#317,#318,#319,#320,#321,#322,#323));
#325=DERIVED_UNIT_ELEMENT(#327,1.);
#326=DERIVED_UNIT_ELEMENT(#574,-3.);
#327=(
MASS_UNIT()
NAMED_UNIT(*)
SI_UNIT(.KILO.,.GRAM.)
);
#328=DERIVED_UNIT((#325,#326));
#329=MEASURE_REPRESENTATION_ITEM('density measure',
POSITIVE_RATIO_MEASURE(1060.),#328);
#330=PROPERTY_DEFINITION_REPRESENTATION(#335,#332);
#331=PROPERTY_DEFINITION_REPRESENTATION(#336,#333);
#332=REPRESENTATION('material name',(#334),#571);
#333=REPRESENTATION('density',(#329),#571);
#334=DESCRIPTIVE_REPRESENTATION_ITEM('ABS Plastic','ABS Plastic');
#335=PROPERTY_DEFINITION('material property','material name',#581);
#336=PROPERTY_DEFINITION('material property','density of part',#581);
#337=AXIS2_PLACEMENT_3D('',#485,#382,#383);
#338=AXIS2_PLACEMENT_3D('',#486,#384,#385);
#339=AXIS2_PLACEMENT_3D('',#488,#386,#387);
#340=AXIS2_PLACEMENT_3D('',#491,#389,#390);
#341=AXIS2_PLACEMENT_3D('',#492,#391,#392);
#342=AXIS2_PLACEMENT_3D('',#494,#393,#394);
#343=AXIS2_PLACEMENT_3D('',#495,#395,#396);
#344=AXIS2_PLACEMENT_3D('',#498,#398,#399);
#345=AXIS2_PLACEMENT_3D('',#499,#400,#401);
#346=AXIS2_PLACEMENT_3D('',#501,#402,#403);
#347=AXIS2_PLACEMENT_3D('',#504,#405,#406);
#348=AXIS2_PLACEMENT_3D('',#505,#407,#408);
#349=AXIS2_PLACEMENT_3D('',#506,#409,#410);
#350=AXIS2_PLACEMENT_3D('',#508,#411,#412);
#351=AXIS2_PLACEMENT_3D('',#511,#414,#415);
#352=AXIS2_PLACEMENT_3D('',#512,#416,#417);
#353=AXIS2_PLACEMENT_3D('',#514,#418,#419);
#354=AXIS2_PLACEMENT_3D('',#515,#420,#421);
#355=AXIS2_PLACEMENT_3D('',#517,#422,#423);
#356=AXIS2_PLACEMENT_3D('',#519,#424,#425);
#357=AXIS2_PLACEMENT_3D('',#521,#426,#427);
#358=AXIS2_PLACEMENT_3D('',#523,#428,#429);
#359=AXIS2_PLACEMENT_3D('',#525,#430,#431);
#360=AXIS2_PLACEMENT_3D('',#527,#432,#433);
#361=AXIS2_PLACEMENT_3D('',#529,#434,#435);
#362=AXIS2_PLACEMENT_3D('',#531,#436,#437);
#363=AXIS2_PLACEMENT_3D('',#532,#438,#439);
#364=AXIS2_PLACEMENT_3D('',#535,#441,#442);
#365=AXIS2_PLACEMENT_3D('',#536,#443,#444);
#366=AXIS2_PLACEMENT_3D('',#539,#446,#447);
#367=AXIS2_PLACEMENT_3D('',#540,#448,#449);
#368=AXIS2_PLACEMENT_3D('',#543,#451,#452);
#369=AXIS2_PLACEMENT_3D('',#544,#453,#454);
#370=AXIS2_PLACEMENT_3D('',#547,#456,#457);
#371=AXIS2_PLACEMENT_3D('',#548,#458,#459);
#372=AXIS2_PLACEMENT_3D('',#551,#461,#462);
#373=AXIS2_PLACEMENT_3D('',#552,#463,#464);
#374=AXIS2_PLACEMENT_3D('',#555,#466,#467);
#375=AXIS2_PLACEMENT_3D('',#556,#468,#469);
#376=AXIS2_PLACEMENT_3D('',#559,#471,#472);
#377=AXIS2_PLACEMENT_3D('',#560,#473,#474);
#378=AXIS2_PLACEMENT_3D('',#563,#476,#477);
#379=AXIS2_PLACEMENT_3D('',#564,#478,#479);
#380=AXIS2_PLACEMENT_3D('',#567,#481,#482);
#381=AXIS2_PLACEMENT_3D('',#568,#483,#484);
#382=DIRECTION('axis',(0.,0.,1.));
#383=DIRECTION('refdir',(1.,0.,0.));
#384=DIRECTION('center_axis',(0.,0.,-1.));
#385=DIRECTION('ref_axis',(-1.,0.,0.));
#386=DIRECTION('center_axis',(0.,0.,1.));
#387=DIRECTION('ref_axis',(-1.,0.,0.));
#388=DIRECTION('',(0.,0.,1.));
#389=DIRECTION('center_axis',(0.,0.,-1.));
#390=DIRECTION('ref_axis',(-1.,0.,0.));
#391=DIRECTION('center_axis',(0.,0.,1.));
#392=DIRECTION('ref_axis',(-1.,0.,0.));
#393=DIRECTION('center_axis',(0.,0.,1.));
#394=DIRECTION('ref_axis',(-1.,0.,0.));
#395=DIRECTION('center_axis',(0.,0.,1.));
#396=DIRECTION('ref_axis',(-1.,0.,0.));
#397=DIRECTION('',(0.,0.,-1.));
#398=DIRECTION('center_axis',(0.,0.,1.));
#399=DIRECTION('ref_axis',(-1.,0.,0.));
#400=DIRECTION('center_axis',(0.,0.,1.));
#401=DIRECTION('ref_axis',(-1.,0.,0.));
#402=DIRECTION('center_axis',(0.,0.,1.));
#403=DIRECTION('ref_axis',(-1.,0.,0.));
#404=DIRECTION('',(0.,0.,-1.));
#405=DIRECTION('center_axis',(0.,0.,-1.));
#406=DIRECTION('ref_axis',(-1.,0.,0.));
#407=DIRECTION('center_axis',(0.,0.,1.));
#408=DIRECTION('ref_axis',(-1.,0.,0.));
#409=DIRECTION('center_axis',(0.,0.,1.));
#410=DIRECTION('ref_axis',(-1.,0.,0.));
#411=DIRECTION('center_axis',(0.,0.,-1.));
#412=DIRECTION('ref_axis',(-1.,0.,0.));
#413=DIRECTION('',(0.,0.,-1.));
#414=DIRECTION('center_axis',(0.,0.,1.));
#415=DIRECTION('ref_axis',(-1.,0.,0.));
#416=DIRECTION('center_axis',(0.,0.,1.));
#417=DIRECTION('ref_axis',(-1.,0.,0.));
#418=DIRECTION('center_axis',(0.,0.,1.));
#419=DIRECTION('ref_axis',(-1.,0.,0.));
#420=DIRECTION('center_axis',(0.,0.,1.));
#421=DIRECTION('ref_axis',(1.,0.,0.));
#422=DIRECTION('center_axis',(0.,0.,-1.));
#423=DIRECTION('ref_axis',(1.,0.,0.));
#424=DIRECTION('center_axis',(0.,0.,-1.));
#425=DIRECTION('ref_axis',(1.,0.,0.));
#426=DIRECTION('center_axis',(0.,0.,-1.));
#427=DIRECTION('ref_axis',(1.,0.,0.));
#428=DIRECTION('center_axis',(0.,0.,-1.));
#429=DIRECTION('ref_axis',(1.,0.,0.));
#430=DIRECTION('center_axis',(0.,0.,-1.));
#431=DIRECTION('ref_axis',(1.,0.,0.));
#432=DIRECTION('center_axis',(0.,0.,-1.));
#433=DIRECTION('ref_axis',(1.,0.,0.));
#434=DIRECTION('center_axis',(0.,0.,-1.));
#435=DIRECTION('ref_axis',(1.,0.,0.));
#436=DIRECTION('center_axis',(0.,0.,-1.));
#437=DIRECTION('ref_axis',(1.,0.,0.));
#438=DIRECTION('center_axis',(0.,0.,1.));
#439=DIRECTION('ref_axis',(1.,0.,0.));
#440=DIRECTION('',(0.,0.,-1.));
#441=DIRECTION('center_axis',(0.,0.,-1.));
#442=DIRECTION('ref_axis',(1.,0.,0.));
#443=DIRECTION('center_axis',(0.,0.,1.));
#444=DIRECTION('ref_axis',(1.,0.,0.));
#445=DIRECTION('',(0.,0.,-1.));
#446=DIRECTION('center_axis',(0.,0.,-1.));
#447=DIRECTION('ref_axis',(1.,0.,0.));
#448=DIRECTION('center_axis',(0.,0.,1.));
#449=DIRECTION('ref_axis',(1.,0.,0.));
#450=DIRECTION('',(0.,0.,-1.));
#451=DIRECTION('center_axis',(0.,0.,-1.));
#452=DIRECTION('ref_axis',(1.,0.,0.));
#453=DIRECTION('center_axis',(0.,0.,1.));
#454=DIRECTION('ref_axis',(1.,0.,0.));
#455=DIRECTION('',(0.,0.,-1.));
#456=DIRECTION('center_axis',(0.,0.,-1.));
#457=DIRECTION('ref_axis',(1.,0.,0.));
#458=DIRECTION('center_axis',(0.,0.,1.));
#459=DIRECTION('ref_axis',(1.,0.,0.));
#460=DIRECTION('',(0.,0.,-1.));
#461=DIRECTION('center_axis',(0.,0.,-1.));
#462=DIRECTION('ref_axis',(1.,0.,0.));
#463=DIRECTION('center_axis',(0.,0.,1.));
#464=DIRECTION('ref_axis',(1.,0.,0.));
#465=DIRECTION('',(0.,0.,-1.));
#466=DIRECTION('center_axis',(0.,0.,-1.));
#467=DIRECTION('ref_axis',(1.,0.,0.));
#468=DIRECTION('center_axis',(0.,0.,1.));
#469=DIRECTION('ref_axis',(1.,0.,0.));
#470=DIRECTION('',(0.,0.,-1.));
#471=DIRECTION('center_axis',(0.,0.,-1.));
#472=DIRECTION('ref_axis',(1.,0.,0.));
#473=DIRECTION('center_axis',(0.,0.,1.));
#474=DIRECTION('ref_axis',(1.,0.,0.));
#475=DIRECTION('',(0.,0.,-1.));
#476=DIRECTION('center_axis',(0.,0.,-1.));
#477=DIRECTION('ref_axis',(1.,0.,0.));
#478=DIRECTION('center_axis',(0.,0.,1.));
#479=DIRECTION('ref_axis',(1.,0.,0.));
#480=DIRECTION('',(0.,0.,-1.));
#481=DIRECTION('center_axis',(0.,0.,1.));
#482=DIRECTION('ref_axis',(1.,0.,0.));
#483=DIRECTION('center_axis',(0.,0.,1.));
#484=DIRECTION('ref_axis',(1.,0.,0.));
#485=CARTESIAN_POINT('',(0.,0.,0.));
#486=CARTESIAN_POINT('Origin',(0.,0.,45.));
#487=CARTESIAN_POINT('',(2.00000002980232,2.44929363479203E-16,41.));
#488=CARTESIAN_POINT('Origin',(0.,0.,41.));
#489=CARTESIAN_POINT('',(2.00000002980232,2.44929363479203E-16,45.));
#490=CARTESIAN_POINT('',(2.00000002980232,-2.44929363479203E-16,45.));
#491=CARTESIAN_POINT('Origin',(0.,0.,45.));
#492=CARTESIAN_POINT('Origin',(0.,0.,41.));
#493=CARTESIAN_POINT('',(4.,4.89858719658941E-16,41.));
#494=CARTESIAN_POINT('Origin',(0.,0.,41.));
#495=CARTESIAN_POINT('Origin',(0.,0.,3.));
#496=CARTESIAN_POINT('',(4.00000005960464,4.89858726958405E-16,0.));
#497=CARTESIAN_POINT('',(4.,4.89858719658941E-16,3.));
#498=CARTESIAN_POINT('Origin',(0.,0.,0.));
#499=CARTESIAN_POINT('Origin',(0.,0.,3.));
#500=CARTESIAN_POINT('',(6.00000008940697,7.34788090437607E-16,45.));
#501=CARTESIAN_POINT('Origin',(0.,0.,45.));
#502=CARTESIAN_POINT('',(6.00000008940697,7.34788090437607E-16,3.));
#503=CARTESIAN_POINT('',(6.00000008940697,7.34788090437607E-16,3.));
#504=CARTESIAN_POINT('Origin',(0.,0.,3.));
#505=CARTESIAN_POINT('Origin',(0.,0.,45.));
#506=CARTESIAN_POINT('Origin',(0.,0.,3.));
#507=CARTESIAN_POINT('',(13.0000001937151,1.59204086261482E-15,45.));
#508=CARTESIAN_POINT('Origin',(0.,0.,45.));
#509=CARTESIAN_POINT('',(13.0000001937151,1.59204086261482E-15,3.));
#510=CARTESIAN_POINT('',(13.0000001937151,1.59204086261482E-15,3.));
#511=CARTESIAN_POINT('Origin',(0.,0.,3.));
#512=CARTESIAN_POINT('Origin',(0.,0.,45.));
#513=CARTESIAN_POINT('',(-15.,-1.83697019872103E-15,45.));
#514=CARTESIAN_POINT('Origin',(0.,0.,45.));
#515=CARTESIAN_POINT('Origin',(0.,0.,3.));
#516=CARTESIAN_POINT('',(1.,8.50000006332994,3.));
#517=CARTESIAN_POINT('Origin',(3.0000000372529,8.50000006332994,3.));
#518=CARTESIAN_POINT('',(-10.5000001013279,-3.,3.));
#519=CARTESIAN_POINT('Origin',(-8.5000001013279,-3.,3.));
#520=CARTESIAN_POINT('',(-5.,8.50000010132789,3.));
#521=CARTESIAN_POINT('Origin',(-3.,8.50000010132789,3.));
#522=CARTESIAN_POINT('',(6.50000010132789,3.,3.));
#523=CARTESIAN_POINT('Origin',(8.5000001013279,3.,3.));
#524=CARTESIAN_POINT('',(6.50000002607704,-3.0000000372529,3.));
#525=CARTESIAN_POINT('Origin',(8.50000006332994,-3.0000000372529,3.));
#526=CARTESIAN_POINT('',(-10.5000001005828,3.00000003725291,3.));
#527=CARTESIAN_POINT('Origin',(-8.50000006332994,3.00000003725291,3.));
#528=CARTESIAN_POINT('',(0.999999999999996,-8.50000010132789,3.));
#529=CARTESIAN_POINT('Origin',(3.,-8.50000010132789,3.));
#530=CARTESIAN_POINT('',(-5.00000007450581,-8.50000006332994,3.));
#531=CARTESIAN_POINT('Origin',(-3.0000000372529,-8.50000006332994,3.));
#532=CARTESIAN_POINT('Origin',(-3.0000000372529,-8.50000006332994,0.));
#533=CARTESIAN_POINT('',(-5.00000007450581,-8.50000006332994,0.));
#534=CARTESIAN_POINT('',(-5.00000007450581,-8.50000006332994,0.));
#535=CARTESIAN_POINT('Origin',(-3.0000000372529,-8.50000006332994,0.));
#536=CARTESIAN_POINT('Origin',(3.,-8.50000010132789,0.));
#537=CARTESIAN_POINT('',(0.999999999999997,-8.50000010132789,0.));
#538=CARTESIAN_POINT('',(0.999999999999997,-8.50000010132789,0.));
#539=CARTESIAN_POINT('Origin',(3.,-8.50000010132789,0.));
#540=CARTESIAN_POINT('Origin',(-8.50000006332994,3.00000003725291,0.));
#541=CARTESIAN_POINT('',(-10.5000001005828,3.00000003725291,0.));
#542=CARTESIAN_POINT('',(-10.5000001005828,3.00000003725291,0.));
#543=CARTESIAN_POINT('Origin',(-8.50000006332994,3.00000003725291,0.));
#544=CARTESIAN_POINT('Origin',(8.50000006332994,-3.0000000372529,0.));
#545=CARTESIAN_POINT('',(6.50000002607704,-3.0000000372529,0.));
#546=CARTESIAN_POINT('',(6.50000002607704,-3.0000000372529,0.));
#547=CARTESIAN_POINT('Origin',(8.50000006332994,-3.0000000372529,0.));
#548=CARTESIAN_POINT('Origin',(8.5000001013279,3.,0.));
#549=CARTESIAN_POINT('',(6.50000010132789,3.,0.));
#550=CARTESIAN_POINT('',(6.50000010132789,3.,0.));
#551=CARTESIAN_POINT('Origin',(8.5000001013279,3.,0.));
#552=CARTESIAN_POINT('Origin',(-3.,8.50000010132789,0.));
#553=CARTESIAN_POINT('',(-5.,8.50000010132789,0.));
#554=CARTESIAN_POINT('',(-5.,8.50000010132789,0.));
#555=CARTESIAN_POINT('Origin',(-3.,8.50000010132789,0.));
#556=CARTESIAN_POINT('Origin',(-8.5000001013279,-3.,0.));
#557=CARTESIAN_POINT('',(-10.5000001013279,-3.,0.));
#558=CARTESIAN_POINT('',(-10.5000001013279,-3.,0.));
#559=CARTESIAN_POINT('Origin',(-8.5000001013279,-3.,0.));
#560=CARTESIAN_POINT('Origin',(3.0000000372529,8.50000006332994,0.));
#561=CARTESIAN_POINT('',(1.,8.50000006332994,0.));
#562=CARTESIAN_POINT('',(1.,8.50000006332994,0.));
#563=CARTESIAN_POINT('Origin',(3.0000000372529,8.50000006332994,0.));
#564=CARTESIAN_POINT('Origin',(0.,0.,0.));
#565=CARTESIAN_POINT('',(-15.,-1.83697019872103E-15,0.));
#566=CARTESIAN_POINT('',(-15.,-1.83697019872103E-15,0.));
#567=CARTESIAN_POINT('Origin',(0.,0.,0.));
#568=CARTESIAN_POINT('Origin',(0.,0.,0.));
#569=UNCERTAINTY_MEASURE_WITH_UNIT(LENGTH_MEASURE(0.01),#573,
'DISTANCE_ACCURACY_VALUE',
'Maximum model space distance between geometric entities at asserted c
onnectivities');
#570=UNCERTAINTY_MEASURE_WITH_UNIT(LENGTH_MEASURE(0.01),#573,
'DISTANCE_ACCURACY_VALUE',
'Maximum model space distance between geometric entities at asserted c
onnectivities');
#571=(
GEOMETRIC_REPRESENTATION_CONTEXT(3)
GLOBAL_UNCERTAINTY_ASSIGNED_CONTEXT((#569))
GLOBAL_UNIT_ASSIGNED_CONTEXT((#573,#575,#576))
REPRESENTATION_CONTEXT('','3D')
);
#572=(
GEOMETRIC_REPRESENTATION_CONTEXT(3)
GLOBAL_UNCERTAINTY_ASSIGNED_CONTEXT((#570))
GLOBAL_UNIT_ASSIGNED_CONTEXT((#573,#575,#576))
REPRESENTATION_CONTEXT('','3D')
);
#573=(
LENGTH_UNIT()
NAMED_UNIT(*)
SI_UNIT(.MILLI.,.METRE.)
);
#574=(
LENGTH_UNIT()
NAMED_UNIT(*)
SI_UNIT($,.METRE.)
);
#575=(
NAMED_UNIT(*)
PLANE_ANGLE_UNIT()
SI_UNIT($,.RADIAN.)
);
#576=(
NAMED_UNIT(*)
SI_UNIT($,.STERADIAN.)
SOLID_ANGLE_UNIT()
);
#577=SHAPE_DEFINITION_REPRESENTATION(#578,#579);
#578=PRODUCT_DEFINITION_SHAPE('',$,#581);
#579=SHAPE_REPRESENTATION('',(#337),#571);
#580=PRODUCT_DEFINITION_CONTEXT('part definition',#585,'design');
#581=PRODUCT_DEFINITION('2026-09-12-19-29-05-457','Sensor case Bottem',
#582,#580);
#582=PRODUCT_DEFINITION_FORMATION('',$,#587);
#583=PRODUCT_RELATED_PRODUCT_CATEGORY('Sensor case Bottem',
'Sensor case Bottem',(#587));
#584=APPLICATION_PROTOCOL_DEFINITION('international standard',
'automotive_design',2009,#585);
#585=APPLICATION_CONTEXT(
'Core Data for Automotive Mechanical Design Process');
#586=PRODUCT_CONTEXT('part definition',#585,'mechanical');
#587=PRODUCT('2026-09-12-19-29-05-457','Sensor case Bottem',$,(#586));
#588=PRESENTATION_STYLE_ASSIGNMENT((#589));
#589=SURFACE_STYLE_USAGE(.BOTH.,#590);
#590=SURFACE_SIDE_STYLE('',(#591));
#591=SURFACE_STYLE_FILL_AREA(#592);
#592=FILL_AREA_STYLE('ABS (White)',(#593));
#593=FILL_AREA_STYLE_COLOUR('ABS (White)',#594);
#594=COLOUR_RGB('ABS (White)',0.964705882352941,0.964705882352941,0.952941176470588);
ENDSEC;
END-ISO-10303-21;
